<?xml version="1.0" encoding="utf-8"?>
<!-- Generator: Adobe Illustrator 25.3.0, SVG Export Plug-In . SVG Version: 6.00 Build 0)  -->
<svg version="1.1" id="Logo_1_" xmlns="http://www.w3.org/2000/svg" xmlns:xlink="http://www.w3.org/1999/xlink" x="0px" y="0px"
	 viewBox="0 0 1052.3 715.2" style="enable-background:new 0 0 1052.3 715.2;" xml:space="preserve">
<style type="text/css">
	.st0{fill:none;}
	.st1{fill:#0C6DB6;}
	.st2{fill:#FCD8A6;}
	.st3{fill:#458FC7;}
	.st4{fill:#1DB8EB;}
	.st5{fill:#0C98D5;}
	.st6{fill:#F89D20;}
	.st7{fill:#FEFEFE;}
	.st8{fill:#DE8304;}
</style>
<g id="Layer_31_xA0_Image_1_">
	<g>
		<path class="st0" d="M158.7,47.8c0.1,0.2,0,0.3-0.1,0.4c-3.1,0.7-5.4,2.7-7.6,4.7c-12.4,11.3-25.5,21.8-37.5,33.6
			c-10.1,9.9-20.4,19.6-29.4,30.6c-1.1,1.4-2.3,2.8-2.8,4.6c9.2,5.5,19.5,5,27.9-1.2c4.7-3.5,8.9-7.6,12.9-11.8
			c13.6-14.3,27.4-28.4,43.1-40.5c3.8-2.9,7.2-6.4,9.9-10.4c1.6-2.3,3.1-4.8,3.6-7.6c-1.8-1.5-3.9-1.8-5.8-2.6 M358.3,466.3
			c2.9,1,5.8,2.3,8.8,3.1c27.5,7.5,54.7,15.9,82.1,23.9c11.5,3.4,22.8,7.4,34.5,9.9c13.7,2.9,25.1-0.6,34.1-11.5
			c4.5-5.4,8.5-11.2,12.3-17.1c14.4-22.6,27.9-45.9,43.8-67.5c2.8-3.8,5.1-8,6-12.7c1.7-8.3,2.3-6.4-4.7-10
			c-0.3-0.1-0.6-0.3-0.9-0.4c-14.3-6-29.4-9.6-44.4-13.4c-17.3-4.4-34.9-7.6-52-12.9c-10.1-3.1-20.3-6.4-31-7
			c-10.4-0.6-19.2,2.3-24.9,11.9c-2.3,3.8-5.4,7.1-8.4,10.4c-1.2-2.1-2.2-4.4-2.1-6.8c0.1-3.7-2.1-5.4-4.9-7.1
			c-1.5,4.4-3.8,8.4-6.2,12.2c-11.9,19.1-25.3,37.1-39,54.9c-8.3,10.8-16.7,21.7-26.2,31.5c-3.1,3.2-6.9,4.9-11.2,5.5
			c-6.7,1-13.2,0.1-19.7-1.3c-11.4-2.4-22.2-6.5-33.3-9.8c-22.2-6.7-44.8-12.5-67.1-18.7c-3.3-0.9-6.7-1.8-10.1-2.8
			c-0.2,8.4,3.5,17.9,8.9,22.8c4.4,4,9.7,6.2,15.2,7.8c24,7.1,48.1,14.1,72.2,21.1c10.6,3.1,21.1,6.8,32.1,8.9
			c8.6,1.6,16.2,0.2,22.1-6.9c1.1-1.3,2.5-2.5,3.9-3.5c1.6-1.2,3.3-2.2,5.5-2.5c0.4,2.8,0.8,5.5,1.2,8.1c2,12,8.1,20.2,20.4,23.2
			c8.5,2,16.7,4.9,25,7.4c18.1,5.3,36.2,10.5,54.2,15.9c13.4,4,26.5,8.8,40.2,11.7c11.2,2.4,20.3-0.9,27.1-10.3
			c2.5-3.5,4.5-7.2,6.7-10.8c2.5-4.2,4.9-8.4,8.7-11.7c3.1,7.2,8.8,11.1,16.2,13c3.9,1,7.9,1.9,11.8,3.1c19.4,5.9,38.7,12,58.2,17.8
			c19.9,5.9,39.8,12,60.2,15.7c16.1,2.9,23.9-2.3,29.8-13.5c4.2-8,8.3-16,12.7-23.9c12.4-22.2,25.2-44.3,36.4-67.2
			c2.5-5.2,5-10.5,6.7-16.1c0.7-2.2,0.2-3.6-1.5-4.9c-3.2-2.5-6.7-4.4-10.3-6.1c-12.4-5.6-25.5-9.2-38.7-12.4
			c-17-4-34.1-7.7-51.1-11.6c-14.9-3.5-29.6-8-44.8-10.2c-8.1-1.2-14.7,0.9-19.4,7.9c-1,1.6-2.2,3.1-3.2,4.8
			c-4.1,6.1-8,12.3-12.5,18.2c-0.5,0.6-0.7,1.7-1.9,1.6c-3.4-7.1-4.4-14.9-5-23.1c-0.9,1.4-1.6,2.4-2.2,3.4
			c-18.4,28.4-36.8,56.8-55.3,85.2c-3.8,5.9-7.8,11.7-12.8,16.7c-4.8,4.9-10.6,7.2-17.5,6.7c-7.6-0.5-14.9-2.7-22.2-4.9
			c-29.8-9.1-59.8-17.9-89.9-26.1c-8.5-2.3-17.1-4.8-25.1-8.5c-1.7-0.8-2-1.7-1.6-3.5C354.8,470.7,356.9,468.7,358.3,466.3z
			 M692.5,389.7c5.8,0,10.2-2.4,14.2-6c5-4.5,8.8-9.9,12.2-15.6c9.9-16.7,19.4-33.6,29.8-50c5-7.9,10.1-15.7,13.8-24.3
			c4.2-9.6,2.2-14.4-7.5-18.1c-7.7-2.9-15.7-4.3-23.7-5.8c-32-6.3-64-11.9-95.7-19.5c-4.5-1.1-9.1-2-13.7-1.7
			c-8.3,0.5-13.8,5.6-18.4,11.7c-15.9,21.5-31.6,43.2-46.5,65.5c-3.7,5.6-7.4,11.2-10.5,17.2c-2.4,4.8-1.3,9.2,2.9,12.5
			c1.9,1.5,4.1,2.5,6.4,3.3c5.9,2.1,12.2,2.6,18.2,4.1c30.6,7.7,61,15.9,91.9,22.5C674.8,387.2,683.7,389.1,692.5,389.7z
			 M285.8,310.9c-2.9,0.1-6.2,0.4-9.5,1.5c-7.3,2.5-12.7,7.6-17.6,13.3c-14.7,17.1-29.4,34.2-43.9,51.4c-7.6,9-15,18-21.8,27.7
			c-3.5,5.1-1.6,13,4.9,15.1c1.6,0.5,3.2,1.2,4.8,1.5c21.3,4.9,41.9,11.9,62.8,17.9c14,4,27.8,8.4,41.9,11.8
			c11.3,2.8,20.7,0,28.3-8.7c2.6-3,5.3-5.8,7.6-8.9c18.9-24.8,37.8-49.6,56.6-74.4c1.9-2.5,3.5-5.1,4.5-8.1
			c1.5-4.6,0.5-7.9-3.4-10.7c-1.2-0.9-2.6-1.6-3.9-2.2c-4.4-2-9-3.3-13.7-4.3c-24.1-5.2-48.1-10.8-71.8-17.8
			C303.5,313.4,295,311.1,285.8,310.9z M809.5,444.7c-4.1-0.3-9.4,2.5-13.7,7.5c-2.2,2.6-4.1,5.4-5.6,8.3
			c-9.4,17.6-18.7,35.3-28,52.9c-8.4,16-16.9,31.9-24.1,48.4c-2.8,6.5-1.2,12.6,4.5,16.9c2.5,1.9,5.3,3.2,8.2,4.3
			c4.9,1.9,10.1,3.1,15.1,4.5c22.2,6.1,44,13.5,66,20c19.5,5.8,38.8,11.8,58.8,15.4c13.1,2.4,20.2-0.6,27.4-11.9
			c2.7-4.2,4.9-8.6,6.7-13.2c9.7-25.8,21.3-50.8,32-76.1c3.6-8.5,7.1-16.9,10-25.6c1.2-3.7,0.4-6.7-1.8-9.6c-1.8-2.3-4.1-4-6.6-5.5
			c-5.3-3.1-11-5.2-16.8-7c-13.4-4.2-27.3-6.6-41-9.9c-18.9-4.5-37.6-10.2-56.6-14.5C833.5,447.6,823,445.4,809.5,444.7z
			 M503.6,344.2c8,0.1,12.7-1.5,17.6-5.7c4.5-3.8,8.1-8.4,11.5-13.1c6.2-8.8,11.8-18,18.3-26.7c9.4-12.4,18.8-24.8,27.2-38
			c2.5-4,4.9-8,6.8-12.4c0.7-1.6,0.4-2.6-0.8-3.8c-2-2-4.2-3.6-6.8-4.9c-6.5-3.3-13.5-4.9-20.6-6.2c-14.8-2.8-29.8-4.9-44.5-8.1
			c-14.9-3.3-29.6-7.4-44.7-9.9c-9.7-1.6-18.6-0.2-26.4,6.2c-6,5-11,10.9-15.9,16.9c-14.9,18.3-28.4,37.7-44,55.4
			c-4.3,4.9-6,10.8-6.1,17.3c0,1.4,0.3,2.1,1.8,2.4c4.1,0.9,8.2,2,12.3,3.1c25.4,6.9,50.6,14.8,76.2,21
			C478.7,340.9,491.8,343.6,503.6,344.2z M338.8,303.6c3.8,0.1,7.3-1,10.5-2.7c5.4-2.9,9.8-7.1,13.9-11.6c7-7.6,12.8-16.1,19.3-24.2
			c11.9-14.7,23.9-29.4,36-44c6.4-7.7,5.7-9.1-2.4-14.2c-5.3-3.4-11.4-4.9-17.5-6.1c-16.6-3.3-33.2-6.4-49.9-9.6
			c-12.5-2.4-24.9-5.2-37.6-6c-9.4-0.6-17.9,1.5-24.9,8.3c-2,1.9-3.9,3.8-5.7,5.8c-7.9,9.4-15.7,18.9-23.7,28.3
			c-7.7,9.1-15.5,18.1-24.4,26.1c-3.9,3.5-7.5,7.3-9.5,12.2c-2.1,5.3-0.5,9.4,4.5,12c1.9,0.9,3.8,1.6,5.9,2.1
			c4.1,0.9,8.3,1.7,12.4,2.7c22.9,5.6,45.6,11.7,68.6,16.7C322.6,301.2,330.6,303,338.8,303.6z M507.6,105.4
			c-8.1,0-14.4,2.1-19.9,6.5c-4.3,3.5-8.1,7.4-11.7,11.6c-14.1,16.4-27,33.9-41.2,50.2c-2.5,2.9-4.7,6.1-6,9.7
			c-1.5,3.9-0.4,7,3.1,9.3c2.2,1.4,4.6,2.2,7.1,2.8c5,1.2,10.1,1.6,15.1,2.6c31.6,6,63.2,12.1,94.8,18.2c3.3,0.6,6.3,0.3,9.3-0.9
			c6.8-2.8,11.8-7.9,16.1-13.7c11.8-15.9,23.4-32,35.3-47.8c4.7-6.3,9.3-12.8,13.3-19.6c1.2-2.1,1-3.6-0.8-5.1
			c-2.6-2.3-5.5-3.9-8.6-5.1c-6.8-2.6-14-3.9-21.2-4.8c-19.8-2.4-39.3-5.9-58.8-9.9C524.4,107.6,515.6,105.7,507.6,105.4z
			 M282.1,160.1c2.1,1.6,4.5,2.4,6.9,3.3c9.4,3.4,19.1,5.6,28.9,7.8c24,5.2,48.3,9.1,72.6,12.5c7.9,1.1,14.1-0.6,19.7-6.4
			c3.7-3.8,7.5-7.4,11.1-11.3c14.6-16.1,27.7-33.5,41.2-50.5c2.1-2.7,4.2-5.4,5.7-8.6c1.7-3.7,0.8-5.8-2.9-7.5
			c-3.1-1.4-6.4-2.1-9.7-2.7c-12.4-2.1-24.7-4.1-37.1-6.1c-17.1-2.8-34.1-6.1-51.2-8.7c-11.1-1.7-20.3,0.6-27.6,9.9
			c-10.2,13.1-22.1,24.6-33.9,36.2c-7.4,7.3-14.6,14.8-20.2,23.6C283.9,154.3,282.6,157,282.1,160.1z M184.1,143.5
			c16.3,3.7,32.2,8.2,48.5,11.2c5.6,1.1,11.4,1.8,17.1,1.4c10.2-0.8,17.7-6.4,23.9-14c5.7-6.9,11.9-13.4,18.2-19.7
			c8.3-8.2,16.6-16.4,24.4-25.1c4.7-5.3,9.5-10.6,12.5-17.2c1.5-3.4,1.4-3.6-2.2-4.5c-19.1-4.8-38.5-7.9-57.9-10.6
			c-6.4-0.9-11.8,0.9-16.8,4.5c-4.5,3.2-8.7,6.7-12.8,10.4c-16.8,15.1-31.3,32.4-47.9,47.7C186.6,131.7,184.4,137.1,184.1,143.5z
			 M535.7,528.7c0,6.1,0.5,11.7,1.8,17.1c2,8.8,7.1,15,15.3,18.8c4,1.9,8.1,3.5,12.3,4.5c27.8,7.1,55.2,15.4,82.4,24.4
			c14.3,4.8,28.8,8.9,43.9,10.9c13.1,1.7,19.7-1.6,25.9-13.2c0.2-0.3,0.4-0.7,0.6-1c10.7-21.3,22.3-42.2,33.3-63.3
			c5.7-10.9,12.1-21.4,17-32.7c2.3-5.4,3.8-11,3.1-17c-0.4-3.2-0.8-6.5-1-9.8c-0.3-3.4-0.4-6.7-0.6-10.6c-2.1,3.5-4.3,6.2-5.8,9.4
			c-3.9,8.3-8.3,16.3-13,24.3c-9.1,15.7-16.8,32.1-25.1,48.2c-5.3,10.1-10.5,20.3-16.8,29.8c-3.3,5-7.9,7.6-13.8,7.8
			c-5.4,0.2-10.7-0.2-16-1.2c-9-1.6-17.4-5.2-26.1-7.8c-33.8-10-67.5-19.9-101.3-29.8c-4.7-1.4-9.3-2.9-12.9-6.4
			C538.1,530.2,537,529.7,535.7,528.7z M234,60c-1.3-0.9-2.7-1.3-4.1-1.7c-6.8-2.1-13.8-2.2-20.8-3.1c-7.1-0.9-12.5,1.4-17.8,6
			c-16.3,14.1-31.7,29.2-47,44.4c-4.4,4.4-9.2,8.3-13.7,12.7c-3.7,3.5-5.9,7.8-6.3,13c0.7,0.1,1.2,0.3,1.8,0.3
			c7.3,0.6,14.6,1.8,21.8,3.3c7.6,1.6,14.4,0.1,20.4-4.8c3.2-2.6,6.4-5.3,9.4-8.2c16.9-15.9,32.5-33.3,49.9-48.7
			C231.4,69.8,233.5,65.4,234,60z"/>
		<path class="st1" d="M173.1,47.8c1.9,0.8,4,1.1,5.8,2.6c-0.5,2.8-2,5.2-3.6,7.6c-2.8,4-6.1,7.4-9.9,10.4
			c-15.8,12-29.5,26.2-43.1,40.5c-4,4.2-8.2,8.3-12.9,11.8c-8.4,6.3-18.8,6.7-27.9,1.2c0.5-1.8,1.7-3.2,2.8-4.6
			c8.9-11,19.3-20.7,29.4-30.6c12-11.8,25-22.3,37.5-33.6c2.2-2,4.5-4.1,7.6-4.7c2.7-0.2,5.5,0.6,8.2-0.4
			C168.9,47.8,171,47.8,173.1,47.8z"/>
		<path class="st2" d="M971,526.5c-0.1,0-0.3,0-0.4,0c0-5.5,0-10.9,0.1-16.4l0.2-0.1l0.2,0.1C971,515.6,971,521.1,971,526.5z"/>
		<path class="st3" d="M166.8,47.8c-2.7,1-5.5,0.3-8.2,0.4c0.1-0.1,0.1-0.3,0.1-0.4C161.4,47.8,164.1,47.8,166.8,47.8z"/>
		<path class="st4" d="M585.8,427.8c1.1,0.1,1.4-1,1.9-1.6c4.5-5.9,8.4-12.1,12.5-18.2c1.1-1.6,2.2-3.1,3.2-4.8
			c4.7-7.1,11.3-9.1,19.4-7.9c15.2,2.2,29.9,6.8,44.8,10.2c17,3.9,34.1,7.6,51.1,11.6c13.2,3.1,26.3,6.7,38.7,12.4
			c3.7,1.6,7.1,3.6,10.3,6.1c1.7,1.4,2.2,2.8,1.5,4.9c-1.8,5.6-4.2,10.9-6.7,16.1c-11.2,22.9-24,44.9-36.4,67.2
			c-4.4,7.9-8.5,15.9-12.7,23.9c-5.9,11.3-13.7,16.5-29.8,13.5c-20.5-3.7-40.3-9.8-60.2-15.7c-19.4-5.8-38.8-11.9-58.2-17.8
			c-3.9-1.2-7.9-2.1-11.8-3.1c-7.3-1.9-13.1-5.8-16.2-13c0.4-1.5,0.7-2.9,1.2-4.4c2.8-8.4,7.5-15.8,12.2-23.2
			c9.7-15.1,20.8-29.2,29.8-44.7C582.5,435.7,585,432.1,585.8,427.8z"/>
		<path class="st5" d="M413.5,373c3-3.3,6.1-6.6,8.4-10.4c5.7-9.6,14.4-12.5,24.9-11.9c10.7,0.6,20.9,3.8,31,7
			c17.1,5.3,34.7,8.5,52,12.9c15,3.8,30.1,7.4,44.4,13.4c0.3,0.1,0.6,0.2,0.9,0.4c7,3.6,6.4,1.7,4.7,10c-0.9,4.7-3.2,8.9-6,12.7
			c-15.9,21.7-29.3,44.9-43.8,67.5c-3.8,5.9-7.8,11.7-12.3,17.1c-9,10.9-20.4,14.5-34.1,11.6c-11.7-2.5-23-6.5-34.5-9.9
			c-27.3-8.1-54.6-16.4-82.1-23.9c-3-0.8-5.9-2.1-8.8-3.1c-0.1-0.4-0.3-0.8-0.4-1.1c-3.1-6.6-2.4-12.8,1.6-18.8
			c3.5-5.2,7.6-9.9,11.2-14.8c8.7-11.8,17.8-23.3,26.8-34.8C403.4,389.2,409.3,381.7,413.5,373z"/>
		<path class="st4" d="M692.5,389.7c-8.9-0.6-17.8-2.5-26.7-4.4c-30.8-6.6-61.3-14.8-91.9-22.5c-6-1.5-12.3-2-18.2-4.1
			c-2.3-0.8-4.5-1.8-6.4-3.3c-4.2-3.3-5.3-7.8-2.9-12.5c3-6,6.7-11.6,10.5-17.2c14.9-22.2,30.5-44,46.5-65.5
			c4.5-6.2,10.1-11.2,18.4-11.7c4.7-0.3,9.2,0.6,13.7,1.7c31.7,7.6,63.8,13.3,95.7,19.5c8,1.6,16,2.9,23.7,5.8
			c9.8,3.7,11.8,8.4,7.5,18.1c-3.8,8.6-8.8,16.5-13.8,24.3c-10.4,16.4-19.9,33.3-29.8,50c-3.4,5.7-7.2,11.1-12.2,15.6
			C702.8,387.3,698.3,389.7,692.5,389.7z"/>
		<path class="st5" d="M285.8,310.9c9.2,0.2,17.6,2.5,26,5c23.7,7,47.7,12.7,71.8,17.8c4.7,1,9.3,2.3,13.7,4.3
			c1.4,0.6,2.7,1.4,3.9,2.2c3.9,2.8,5,6.1,3.4,10.7c-1,3-2.6,5.6-4.5,8.1c-18.9,24.8-37.7,49.6-56.6,74.4c-2.4,3.1-5.1,6-7.6,8.9
			c-7.6,8.7-17,11.5-28.3,8.7c-14.1-3.5-28-7.8-41.9-11.8c-20.9-6-41.6-13-62.8-17.9c-1.6-0.4-3.2-1-4.8-1.5c-6.5-2-8.4-10-4.9-15.1
			c6.8-9.6,14.2-18.7,21.8-27.7c14.6-17.2,29.3-34.3,43.9-51.4c4.9-5.7,10.3-10.7,17.6-13.3C279.6,311.2,282.9,311,285.8,310.9z"/>
		<path class="st6" d="M809.5,444.7c13.5,0.7,24.1,2.9,34.6,5.2c19,4.2,37.7,9.9,56.6,14.5c13.7,3.3,27.5,5.7,41,9.9
			c5.8,1.8,11.5,3.9,16.8,7c2.5,1.5,4.8,3.2,6.6,5.5c2.3,2.9,3.1,5.9,1.8,9.6c-3,8.7-6.4,17.2-10,25.6c-10.7,25.3-22.3,50.3-32,76.1
			c-1.7,4.6-4,9.1-6.7,13.2c-7.2,11.3-14.2,14.3-27.4,11.9c-20-3.6-39.4-9.7-58.8-15.4c-22-6.5-43.8-13.9-66-20
			c-5.1-1.4-10.2-2.6-15.1-4.5c-2.9-1.1-5.7-2.4-8.2-4.3c-5.7-4.3-7.4-10.4-4.5-16.9c7.2-16.6,15.7-32.5,24.1-48.4
			c9.3-17.7,18.6-35.3,28-52.9c1.6-3,3.5-5.7,5.6-8.3C800.1,447.2,805.4,444.4,809.5,444.7z M827.7,586.7c16-7.7,32.6-8.5,49.5-3.6
			c5,1.4,7.6,0.3,9.9-4.4c9.1-18.8,18.1-37.5,27.2-56.3c3-6.3,6.1-12.5,9.1-18.8c2-4.2,0.8-6.5-3.8-7.3c-0.6-0.1-1.3-0.2-1.9-0.3
			c-13.9-2.4-27.4-1.3-40.1,5.5c-5,2.6-8.9,6-11.5,11.3c-8.9,17.6-18.3,34.9-27.5,52.4c-3.7,7.1-7.4,14.2-11.1,21.2
			c-0.1,0.2-0.1,0.3-0.2,0.5C827.4,586.8,827.5,586.7,827.7,586.7z M829.9,591.1c4.9,0.4,9.3,0.5,13.7,1.2c13.2,2,25.7,6,37.7,11.7
			c3.6,1.7,7.3,0.5,9-3.1c2.8-5.7,5.4-11.4,8.1-17.1c8.7-18.1,17.4-36.2,26.1-54.4c1.5-3.2,3.1-6.3,4.3-9.6c0.9-2.3-0.2-4.3-2.4-5.2
			c-4-1.6-4.3-1.5-5.8,1.7c-5.5,11.6-11,23.2-16.5,34.8c-1.6,3.5-3.1,7-4.8,10.4c-3.2,6.3-5.3,13.3-9.5,19
			c-3.9,5.4-9.5,8.2-16.4,6.9c-5.2-1-10.5-1.8-15.8-2c-5.4-0.2-10.7,0.4-15.9,1.5C837.8,587.9,833.8,588.8,829.9,591.1z
			 M815.7,531.5c4.8,2,9.4,3.1,14,4c0.4,0.1,1-0.1,1.3-0.4c3.2-2.5,5.9-5.5,8.5-8.7c-0.5-0.3-0.7-0.6-1-0.7c-3.9-1-7.9-2.1-11.8-3
			c-0.8-0.2-1.7-0.3-2.3,0.3C821.8,525.8,818.4,527.9,815.7,531.5z M833.5,539.3c-3.8-1.6-7.3-1.9-10.6-3.1c-2.8-1-5-0.7-7,1.8
			c-1,1.3-2.5,2.2-3.8,3.3c-1,0.9-2.1,1.7-2.5,3.3c4.4,1.8,8.9,2.9,13.5,3.9c0.7,0.2,1.2-0.2,1.8-0.6
			C828,545.5,830.5,542.5,833.5,539.3z M852.7,500.3c-3.4-1.5-6.6-1.8-9.6-2.8c-3.3-1.2-6.1-1.1-8.5,2c-1,1.4-2.6,2.3-3.9,3.5
			c-0.7,0.7-1.6,1.3-1.8,2.7c4.4,1.9,9,3,13.6,3.9c0.4,0.1,1-0.2,1.3-0.4C847,506.7,849.6,503.7,852.7,500.3z M822.3,518.6
			c4.7,2,9.3,3,14,4c0.3,0.1,0.7-0.1,0.9-0.2c3.4-2.5,6.2-5.6,9-9.1c-3.2-1.3-6.2-1.6-9-2.6c-3.5-1.3-6.5-1.2-9.1,2
			C826.4,514.6,823.9,515.8,822.3,518.6z M803.4,557.4c0.3,0.2,0.6,0.5,0.9,0.6c4,1.5,8.1,2.5,12.2,3.4c0.4,0.1,1,0.1,1.4-0.2
			c3.5-2.4,6.1-5.6,9.1-9c-3.1-1.4-6-1.6-8.7-2.6c-3.8-1.4-7.1-1.4-9.8,2.2c-0.9,1.2-2.3,2-3.4,3
			C804.5,555.5,803.6,556.1,803.4,557.4z M859.2,488.5c-0.8-1-1.5-1.8-2.7-2c-1.2-0.2-2.4-0.4-3.5-0.9c-5.1-2.4-9.3-1.5-12.8,2.9
			c-1.2,1.5-3,2.3-3.9,4.2c0.3,0.2,0.6,0.6,0.9,0.7c4.2,1.6,8.7,3.9,13.1,3.3c3.8-0.5,6-4.9,8.7-7.8
			C859.1,488.9,859.1,488.8,859.2,488.5z M856.8,501c-1.3-0.1-2.4,0.5-3.3,1.3c-2.2,2.2-4.4,4.4-6.5,6.7c-1.3,1.4-0.5,2.1,0.9,2.5
			c4,1.1,8,2.2,12,3.3c0.7,0.2,1.5,0.5,1.9-0.3c1.5-2.8,3.3-5.5,4.2-8.5c0.3-1,0.6-2.4-1-2.8C862.4,502.4,859.6,501.7,856.8,501z
			 M860.7,516.7c-3.3-0.9-6.4-1.7-9.4-2.5c-1.5-0.4-2.9,0-4,1c-2.2,2.2-4.4,4.4-6.5,6.6c-1.2,1.2-0.9,2.1,0.7,2.6
			c4,1.1,8,2.2,12,3.3c0.8,0.2,1.4,0.2,1.8-0.7C857,523.7,858.8,520.3,860.7,516.7z M853.8,529.6c-3-0.8-5.8-1.5-8.6-2.3
			c-1.8-0.5-3.3-0.1-4.6,1.2c-2.1,2.1-4.2,4.2-6.2,6.3c-1.2,1.2-1.1,2.2,0.7,2.8c3.8,1.1,7.5,2,11.3,3.2c1.1,0.3,1.6,0,2.1-0.9
			C850.2,536.4,852,533.1,853.8,529.6z M847,542.5c-3-0.8-5.8-1.6-8.6-2.3c-1.4-0.4-2.7,0-3.8,1c-2.3,2.2-4.5,4.5-6.7,6.8
			c-1.1,1.1-0.8,2,0.7,2.5c4,1.2,8.1,2.2,12.3,3.4C842.9,550.1,844.8,546.4,847,542.5z M840.1,555.3c-3-0.8-5.8-1.6-8.5-2.2
			c-1.3-0.3-2.4,0.2-3.3,1c-2.3,2.3-4.6,4.6-6.9,7c-0.9,0.9-0.7,1.8,0.5,2.2c4,1.2,8.1,2.3,12.2,3.4
			C836.1,562.8,838,559.2,840.1,555.3z M817,572.1c0.5,0.8,1,1.5,1.5,2.2c0.5,0.8,0.9,1.7,1.4,2.5c0.5,0.8,6.1,2.8,7,2.5
			c0.3-0.1,0.5-0.3,0.7-0.6c1.8-3.4,3.7-6.8,5.5-10.3C824.8,564.6,823.2,565,817,572.1z M810.6,515.1c6,3.4,8.3,3.2,13.2-1
			c1.1-0.9,2.2-1.8,3.2-2.8c0.7-0.7,1.7-1.3,1.8-2.4c-0.1-0.1-0.1-0.2-0.2-0.3c-5.1-2.4-9.9-2.9-13.9,2.1
			C813.6,512.3,811.4,513,810.6,515.1z M822.8,521.9c-1.4-1-2.8-1.2-4.2-1.5c-1.5-0.3-3.2-1.5-4.6-0.7c-3.7,2-7,4.7-9.5,8.1
			c-0.1,0.1,0,0.3,0.1,0.7c2.1,0.6,4.3,1.2,6.5,1.9c1,0.3,2,0.3,2.8-0.3C816.9,527.6,820.2,525.2,822.8,521.9z M797.5,541
			c5.4,2.8,10.2,4,14.2-1.4c0.6-0.8,1.6-1.3,2.3-2c0.8-0.8,1.9-1.5,2.1-3c-2.8-0.8-5.7-2.7-8.4-1.8
			C803.6,534.3,800.8,537.8,797.5,541z M843.1,483.1c-2.6-0.7-5-1.3-7.3-2c-0.8-0.2-1.6,0-2.3,0.4c-3.2,2-5.8,4.7-8.6,7.2
			c-0.3,0.3-0.4,0.7-0.1,1.1c0.2,0.1,0.4,0.2,0.6,0.3c4.9,2.5,9.3,2.6,13.1-2.2C839.8,486.3,841.8,485.3,843.1,483.1z M817.1,502.4
			c0.9,0.3,1.9,0.6,2.9,1.1c3.7,1.6,7,1.7,9.8-1.9c1.1-1.4,2.8-2.4,4.1-3.7c0.6-0.6,1.4-1.1,1.4-2.1c-6.3-3.2-8.3-3-13.5,1.5
			c-1.1,0.9-2.2,1.9-3.3,2.8C817.8,500.7,817.1,501.2,817.1,502.4z M791.6,554.2c6.1,3.3,8.1,3.1,13.1-1.1c1.1-0.9,2.2-1.8,3.2-2.8
			c0.7-0.7,1.7-1.3,1.8-2.5c-1.6-0.9-3.5-1-5.2-1.7c-2.3-0.8-4.2-0.3-6,1.2c-2,1.7-4,3.4-6,5.1C792,552.8,791.5,553.3,791.6,554.2z
			 M860.9,490.5c-2.3,2.1-4.4,4-6.4,6c-0.8,0.8-1,1.8,0.3,2.2c3.5,1.1,7.1,2,10.9,3.1C865,497.3,863.4,493.7,860.9,490.5z
			 M816.9,487.3c3.3,1.7,5.6,1.4,7.8-0.7c1.7-1.6,3.5-3,5.3-4.5c0.6-0.5,1.3-0.9,1.3-2c-1.3-0.8-2.9-1.5-4.2-0.8
			C823.4,481.5,820.4,484.4,816.9,487.3z M790.5,539.3c2.2,0.3,4,1.6,5.8,0.1c2.6-2.1,5.2-4.2,7.8-6.3c0.4-0.3,0.8-0.8,0.5-1.6
			c-2-0.8-4-1.2-5.9,0.5c-1.3,1.2-2.8,2.1-4.1,3.3C793.3,536.5,791.5,537.2,790.5,539.3z M803,512.9c3.5,1.8,5.9,1.2,8.2-1
			c1.5-1.5,3.3-2.8,5-4.2c0.6-0.5,1.4-0.9,1.2-1.9c-0.1-0.1-0.2-0.3-0.3-0.3c-2.1-1-4.1-0.9-6,0.8
			C808.6,508.5,805.9,510.5,803,512.9z M809.7,500c3.4,1.8,5.8,1,8.1-1.3c1.5-1.5,3.3-2.8,4.9-4.1c0.6-0.5,1.3-1,1.1-2
			c-2.2-1-4.3-1.1-6.3,0.7C814.9,495.6,812,497.3,809.7,500z M796.8,525.9c3.2,1.7,5.5,1.4,7.7-0.7c1.7-1.7,3.7-3.1,5.5-4.6
			c0.6-0.5,1.3-0.9,1.1-2c-1.4-0.7-3-1.3-4.3-0.5C803.1,520.1,800.1,522.9,796.8,525.9z M798.2,544.5c-2-0.8-3.9-1.3-5.9,0.4
			c-2.2,2-4.6,3.7-6.9,5.6c-0.5,0.4-1.2,0.8-1,1.5c3,1.9,5.4,0.9,7.6-1.2c1.6-1.5,3.3-2.8,5-4.2
			C797.6,546.1,798.4,545.7,798.2,544.5z M820.6,565c-5-1.4-9.5-2.8-14.4-3.2c3.5,2.5,6.7,5.4,9.6,8.7
			C817.5,568.8,819.1,567.4,820.6,565z M798.1,511.4c1.9,1.5,3.2,0.9,4.4-0.1c2.4-1.9,4.8-3.7,7.1-5.6c0.6-0.5,1.4-0.9,0.8-2.4
			C805.1,504.1,802.3,508.5,798.1,511.4z M792.2,543.2c-3.1-1.2-10.3,3.4-12.9,7.5c0.8,0.6,1.8,1,2.6,0.4
			C785.3,548.6,788.5,546,792.2,543.2z M792,524.6c1.4,1.2,2.7,0.8,3.8-0.1c2.6-2,5.1-4,7.7-6.1c0.5-0.4,1.1-0.8,0.9-1.5
			C801.8,516.1,796.1,519.6,792,524.6z M804.4,498.4c2.3,1.2,2.7,1.2,4.3,0c2.5-1.9,4.9-3.8,7.3-5.8c0.5-0.4,1.2-0.8,1.1-2.2
			C811.5,490.9,808.8,495.6,804.4,498.4z M785.2,537.5c2.8,1.2,11.1-4.1,13-8.1C792.3,530,789.5,534.5,785.2,537.5z M824.3,477.8
			c-5.4,0.8-8.3,5.1-12.3,8.1c1.4,1.1,2.6,1.1,3.6,0.3c2.9-2.2,5.7-4.5,8.6-6.8C824.5,479.2,824.7,478.9,824.3,477.8z M826.3,581.1
			c-1.8-0.4-3.2-0.8-4.8-1.2c0.7,2.2,1.3,4,2.1,6.4C824.6,584.4,825.4,582.9,826.3,581.1z M852.1,483.2c-4.2-3.2-7.6-4.3-8.8-2.8
			C846.1,481.9,849.2,482.5,852.1,483.2z M841.8,478.6c-3.4-1.7-5-1.8-6.8-0.2C837.2,479.1,839.3,480.2,841.8,478.6z"/>
		<path class="st5" d="M503.6,344.2c-11.8-0.6-24.9-3.4-37.9-6.5c-25.6-6.1-50.8-14.1-76.2-21c-4.1-1.1-8.2-2.2-12.3-3.1
			c-1.5-0.3-1.9-1-1.8-2.4c0.1-6.4,1.8-12.4,6.1-17.3c15.6-17.7,29.1-37.1,44-55.4c4.9-6,9.9-11.9,15.9-16.9
			c7.8-6.5,16.7-7.8,26.4-6.2c15.1,2.5,29.8,6.6,44.7,9.9c14.8,3.2,29.7,5.3,44.5,8.1c7.1,1.3,14.1,3,20.6,6.2
			c2.5,1.3,4.8,2.9,6.8,4.9c1.2,1.2,1.4,2.2,0.8,3.8c-1.8,4.4-4.2,8.4-6.8,12.4c-8.4,13.2-17.8,25.6-27.2,38
			c-6.5,8.6-12.1,17.9-18.3,26.7c-3.4,4.8-7,9.4-11.5,13.1C516.2,342.7,511.7,344.3,503.6,344.2z"/>
		<path class="st5" d="M338.8,303.6c-8.2-0.6-16.2-2.4-24.3-4.2c-23-5-45.8-11.1-68.6-16.7c-4.1-1-8.3-1.8-12.4-2.7
			c-2-0.5-4-1.1-5.9-2.1c-5-2.6-6.6-6.8-4.5-12c2-4.9,5.6-8.7,9.5-12.2c8.9-8,16.6-17,24.4-26.1c8-9.4,15.8-18.9,23.7-28.3
			c1.8-2.1,3.7-3.9,5.7-5.8c7-6.7,15.5-8.9,24.9-8.3c12.7,0.9,25.1,3.6,37.6,6c16.6,3.2,33.2,6.3,49.9,9.6
			c6.1,1.2,12.2,2.8,17.5,6.1c8,5.1,8.8,6.5,2.4,14.2c-12.1,14.6-24.1,29.2-36,44c-6.5,8-12.3,16.5-19.3,24.2
			c-4.1,4.5-8.5,8.7-13.9,11.6C346.1,302.6,342.6,303.7,338.8,303.6z"/>
		<path class="st5" d="M507.6,105.4c8,0.3,16.8,2.2,25.7,4c19.5,4,39,7.5,58.8,9.9c7.2,0.9,14.4,2.1,21.2,4.8c3.2,1.2,6,2.8,8.6,5.1
			c1.8,1.6,2.1,3,0.8,5.1c-4,6.9-8.5,13.3-13.3,19.6c-11.9,15.9-23.5,31.9-35.3,47.8c-4.2,5.8-9.2,10.9-16.1,13.7
			c-3,1.2-6,1.6-9.3,0.9c-31.6-6.1-63.2-12.2-94.8-18.2c-5-1-10.1-1.3-15.1-2.6c-2.5-0.6-4.9-1.4-7.1-2.8c-3.5-2.3-4.5-5.4-3.1-9.3
			c1.3-3.6,3.5-6.8,6-9.7c14.2-16.3,27.1-33.8,41.2-50.2c3.6-4.2,7.4-8.2,11.7-11.6C493.2,107.5,499.5,105.4,507.6,105.4z"/>
		<path class="st5" d="M282.1,160.1c0.5-3.1,1.9-5.8,3.5-8.4c5.6-8.8,12.8-16.4,20.2-23.6c11.8-11.6,23.7-23.1,33.9-36.2
			c7.3-9.4,16.5-11.6,27.6-9.9c17.1,2.6,34.1,5.9,51.2,8.7c12.4,2,24.7,4,37.1,6.1c3.3,0.6,6.6,1.3,9.7,2.7c3.7,1.7,4.5,3.8,2.9,7.5
			c-1.4,3.1-3.5,5.9-5.7,8.6c-13.5,17-26.5,34.4-41.2,50.5c-3.5,3.9-7.4,7.5-11.1,11.3c-5.5,5.7-11.7,7.4-19.7,6.4
			c-24.4-3.3-48.6-7.2-72.6-12.5c-9.8-2.1-19.5-4.4-28.9-7.8C286.6,162.5,284.2,161.7,282.1,160.1z"/>
		<path class="st1" d="M413.5,373c-4.2,8.7-10.1,16.2-16,23.8c-9,11.5-18.1,23-26.8,34.8c-3.7,5-7.8,9.7-11.2,14.8
			c-4,6-4.7,12.2-1.6,18.8c0.2,0.4,0.3,0.7,0.4,1.1c-1.4,2.4-3.5,4.3-4.1,7.2c-0.4,1.8-0.2,2.7,1.6,3.5c8.1,3.7,16.6,6.2,25.1,8.5
			c30.1,8.2,60.1,17,89.9,26.1c7.2,2.2,14.5,4.4,22.2,4.9c6.9,0.5,12.7-1.8,17.5-6.7c5-5,9-10.8,12.8-16.7
			c18.5-28.4,36.9-56.8,55.3-85.2c0.6-1,1.3-2,2.2-3.4c0.6,8.3,1.6,16,5,23.1c-0.8,4.3-3.2,7.9-5.4,11.6
			c-9,15.5-20.1,29.7-29.8,44.7c-4.7,7.4-9.4,14.8-12.2,23.2c-0.5,1.4-0.8,2.9-1.2,4.4c-3.8,3.2-6.2,7.5-8.7,11.7
			c-2.2,3.6-4.2,7.4-6.7,10.8c-6.8,9.4-15.9,12.7-27.1,10.3c-13.7-2.9-26.8-7.7-40.2-11.7c-18-5.4-36.2-10.5-54.2-15.9
			c-8.3-2.5-16.6-5.3-25-7.4c-12.3-2.9-18.5-11.2-20.4-23.2c-0.4-2.6-0.8-5.3-1.2-8.1c-2.2,0.4-3.9,1.3-5.5,2.5
			c-1.4,1.1-2.8,2.2-3.9,3.5c-5.9,7.1-13.5,8.5-22.1,6.9c-10.9-2.1-21.4-5.8-32.1-8.9c-24.1-7-48.1-14-72.2-21.1
			c-5.5-1.6-10.8-3.9-15.2-7.8c-5.4-4.9-9.2-14.4-8.9-22.8c3.4,0.9,6.7,1.8,10.1,2.8c22.4,6.3,44.9,12,67.1,18.7
			c11.1,3.3,21.9,7.4,33.3,9.8c6.5,1.4,13.1,2.3,19.7,1.3c4.3-0.7,8.1-2.4,11.2-5.5c9.5-9.9,17.9-20.7,26.2-31.5
			c13.7-17.8,27.1-35.8,39-54.9c2.4-3.8,4.7-7.8,6.2-12.2c2.7,1.8,5,3.5,4.9,7.1C411.3,368.6,412.2,370.9,413.5,373z"/>
		<path class="st1" d="M184.1,143.5c0.4-6.4,2.6-11.7,7-15.8c16.6-15.3,31.1-32.7,47.9-47.7c4.1-3.7,8.3-7.2,12.8-10.4
			c5.1-3.6,10.4-5.4,16.8-4.5c19.5,2.7,38.9,5.7,57.9,10.6c3.6,0.9,3.7,1.1,2.2,4.5c-3,6.6-7.7,11.9-12.5,17.2
			c-7.7,8.7-16.1,16.9-24.4,25.1c-6.3,6.3-12.5,12.7-18.2,19.7c-6.2,7.6-13.6,13.2-23.9,14c-5.8,0.4-11.5-0.3-17.1-1.4
			C216.3,151.6,200.4,147.1,184.1,143.5z"/>
		<path class="st1" d="M535.7,528.7c1.3,1,2.4,1.5,3.2,2.3c3.6,3.6,8.2,5.1,12.9,6.4c33.8,9.9,67.5,19.8,101.3,29.8
			c8.7,2.6,17.1,6.2,26.1,7.8c5.3,1,10.6,1.4,16,1.2c5.9-0.2,10.5-2.9,13.8-7.8c6.3-9.5,11.5-19.7,16.8-29.8
			c8.4-16.1,16-32.5,25.1-48.2c4.6-8,9.1-15.9,13-24.3c1.5-3.2,3.7-5.9,5.8-9.4c0.2,3.9,0.3,7.2,0.6,10.6c0.2,3.3,0.6,6.5,1,9.8
			c0.7,6-0.7,11.6-3.1,17c-4.9,11.3-11.3,21.8-17,32.7c-11,21.2-22.7,42-33.3,63.3c-0.2,0.4-0.4,0.7-0.6,1
			c-6.2,11.6-12.8,14.9-25.9,13.2c-15-2-29.6-6.1-43.9-10.9c-27.2-9.1-54.6-17.3-82.4-24.4c-4.2-1.1-8.3-2.7-12.3-4.5
			c-8.1-3.8-13.3-10-15.3-18.8C536.3,540.4,535.7,534.8,535.7,528.7z"/>
		<path class="st6" d="M970.6,510.1c0,5.5,0,10.9-0.1,16.4c0,7.5-1.9,14.6-4.8,21.6c-13.2,32.3-26.3,64.7-39.5,97.1
			c-1.6,4-3.6,7.8-5.9,11.5c-5.8,9.3-12.4,12.2-23.2,10.1c-12.3-2.3-24.1-6.3-36-9.8c-30.6-9-61.1-18-91.8-26.4
			c-5.6-1.5-11.1-3.5-16.4-6c-8-3.7-12.2-10-13.2-18.6c-0.8-6.3-0.9-12.7-0.9-19.2c0.3,0.1,0.6,0,0.7,0.2
			c6.3,7.2,14.6,10.7,23.7,13.2c39.1,10.7,78.2,21.7,117.2,32.6c6.4,1.8,12.8,3.6,19.1,5.4c1.4,0.4,2.8,0.6,4.2,0.3
			c7.4-1.7,13.5-5,16.6-12.5c15.8-37.4,31.8-74.8,47.7-112.1C968.7,512.3,969.4,511,970.6,510.1z"/>
		<path class="st1" d="M234,60c-0.5,5.3-2.6,9.8-6.5,13.2c-17.4,15.4-33,32.8-49.9,48.7c-3,2.9-6.2,5.6-9.4,8.2
			c-6,5-12.8,6.4-20.4,4.8c-7.2-1.5-14.4-2.7-21.8-3.3c-0.6,0-1.1-0.2-1.8-0.3c0.4-5.2,2.6-9.5,6.3-13c4.5-4.3,9.3-8.3,13.7-12.7
			c15.3-15.2,30.7-30.3,47.1-44.4c5.3-4.6,10.7-6.8,17.8-6c7,0.8,14,1,20.8,3.1C231.3,58.7,232.7,59.1,234,60z"/>
		<path class="st7" d="M827.4,586.4c3.7-7.1,7.3-14.2,11.1-21.2c9.2-17.5,18.6-34.8,27.5-52.4c2.7-5.3,6.6-8.6,11.5-11.3
			c12.7-6.7,26.2-7.8,40.1-5.5c0.6,0.1,1.3,0.2,1.9,0.3c4.6,0.8,5.8,3.1,3.8,7.3c-3,6.3-6,12.5-9.1,18.8
			c-9.1,18.8-18.1,37.5-27.2,56.3c-2.3,4.7-4.9,5.8-9.9,4.4c-16.9-4.9-33.5-4.1-49.5,3.6C827.6,586.6,827.5,586.5,827.4,586.4z"/>
		<path class="st8" d="M829.9,591.1c4-2.3,7.9-3.3,11.8-4.1c5.2-1.1,10.5-1.7,15.9-1.5c5.3,0.2,10.6,1,15.8,2
			c6.9,1.3,12.5-1.6,16.4-6.9c4.2-5.7,6.3-12.7,9.5-19c1.8-3.4,3.2-7,4.8-10.4c5.5-11.6,11-23.2,16.5-34.8c1.5-3.2,1.8-3.2,5.8-1.7
			c2.2,0.9,3.3,2.9,2.4,5.2c-1.3,3.3-2.8,6.4-4.3,9.6c-8.7,18.1-17.4,36.2-26.1,54.4c-2.7,5.7-5.3,11.4-8.1,17.1
			c-1.8,3.6-5.5,4.8-9,3.1c-12-5.7-24.6-9.7-37.7-11.7C839.2,591.6,834.8,591.5,829.9,591.1z"/>
		<path class="st7" d="M815.7,531.5c2.7-3.6,6.1-5.7,8.8-8.4c0.6-0.6,1.5-0.5,2.3-0.3c3.9,1,7.9,2,11.8,3c0.3,0.1,0.5,0.3,1,0.7
			c-2.6,3.2-5.3,6.2-8.5,8.7c-0.3,0.3-0.9,0.5-1.3,0.4C825.1,534.6,820.5,533.4,815.7,531.5z"/>
		<path class="st7" d="M833.5,539.3c-3,3.2-5.5,6.2-8.6,8.7c-0.5,0.4-1.1,0.7-1.8,0.6c-4.6-1-9.1-2.1-13.5-3.9
			c0.3-1.7,1.5-2.4,2.5-3.3c1.2-1.1,2.8-2,3.8-3.3c2-2.4,4.2-2.8,7-1.8C826.2,537.4,829.8,537.7,833.5,539.3z"/>
		<path class="st7" d="M852.7,500.3c-3,3.4-5.6,6.4-8.8,8.8c-0.3,0.3-0.9,0.5-1.3,0.4c-4.7-0.9-9.3-2-13.6-3.9c0.1-1.4,1-2,1.8-2.7
			c1.3-1.2,2.9-2.1,3.9-3.5c2.4-3,5.1-3.2,8.5-2C846,498.5,849.2,498.8,852.7,500.3z"/>
		<path class="st7" d="M822.3,518.6c1.6-2.8,4.1-3.9,5.7-5.9c2.6-3.3,5.5-3.4,9.1-2c2.8,1,5.9,1.3,9,2.6c-2.8,3.5-5.5,6.6-9,9.1
			c-0.2,0.2-0.6,0.3-0.9,0.2C831.6,521.6,827,520.6,822.3,518.6z"/>
		<path class="st7" d="M803.4,557.4c0.2-1.3,1.1-1.9,1.8-2.6c1.1-1,2.5-1.8,3.4-3c2.7-3.6,6-3.6,9.8-2.2c2.7,1,5.6,1.2,8.7,2.6
			c-3,3.4-5.6,6.6-9.1,9c-0.3,0.2-0.9,0.2-1.4,0.2c-4.1-0.9-8.2-1.9-12.2-3.4C804,557.9,803.7,557.6,803.4,557.4z"/>
		<path class="st7" d="M859.2,488.5c-0.1,0.2-0.1,0.3-0.1,0.4c-2.7,2.9-4.9,7.3-8.7,7.8c-4.3,0.6-8.8-1.6-13.1-3.3
			c-0.3-0.1-0.6-0.5-0.9-0.7c0.8-1.9,2.7-2.8,3.9-4.2c3.5-4.4,7.8-5.3,12.8-2.9c1.1,0.5,2.3,0.7,3.5,0.9
			C857.7,486.8,858.4,487.5,859.2,488.5z"/>
		<path class="st7" d="M856.8,501c2.8,0.7,5.5,1.4,8.3,2.2c1.5,0.4,1.2,1.8,1,2.8c-0.9,3.1-2.8,5.7-4.2,8.5
			c-0.5,0.8-1.3,0.5-1.9,0.3c-4-1.1-8-2.2-12-3.3c-1.4-0.4-2.2-1.2-0.9-2.5c2.2-2.2,4.3-4.5,6.5-6.7
			C854.4,501.5,855.5,500.9,856.8,501z"/>
		<path class="st7" d="M860.7,516.7c-1.9,3.6-3.7,7-5.5,10.4c-0.4,0.8-1,0.9-1.8,0.7c-4-1.1-8-2.2-12-3.3c-1.6-0.5-1.9-1.4-0.7-2.6
			c2.2-2.2,4.3-4.5,6.5-6.6c1.1-1.1,2.5-1.4,4-1C854.3,515,857.4,515.8,860.7,516.7z"/>
		<path class="st7" d="M853.8,529.6c-1.9,3.5-3.7,6.8-5.4,10.2c-0.5,0.9-1,1.2-2.1,0.9c-3.7-1.1-7.5-2.1-11.3-3.2
			c-1.8-0.5-1.9-1.5-0.7-2.8c2-2.1,4.1-4.2,6.2-6.3c1.3-1.3,2.8-1.7,4.6-1.2C848,528.1,850.8,528.8,853.8,529.6z"/>
		<path class="st7" d="M847,542.5c-2.1,4-4.1,7.6-6.1,11.3c-4.2-1.2-8.3-2.2-12.3-3.4c-1.5-0.4-1.8-1.3-0.7-2.5
			c2.2-2.3,4.5-4.6,6.7-6.8c1-1,2.3-1.4,3.8-1C841.2,540.9,843.9,541.6,847,542.5z"/>
		<path class="st7" d="M840.1,555.3c-2.1,3.8-4,7.5-6.1,11.3c-4.1-1.1-8.1-2.2-12.2-3.4c-1.2-0.4-1.4-1.3-0.5-2.2
			c2.3-2.4,4.5-4.7,6.9-7c0.9-0.9,2-1.3,3.3-1C834.3,553.8,837.1,554.5,840.1,555.3z"/>
		<path class="st7" d="M817,572.1c6.2-7.1,7.8-7.5,16.1-3.6c-1.8,3.4-3.6,6.8-5.5,10.3c-0.1,0.2-0.4,0.5-0.7,0.6
			c-0.9,0.3-6.5-1.7-7-2.5c-0.5-0.8-0.9-1.7-1.4-2.5C818,573.6,817.5,572.9,817,572.1z"/>
		<path class="st7" d="M810.6,515.1c0.8-2.1,2.9-2.8,4.2-4.4c4-5,8.8-4.5,13.9-2.1c0.1,0,0.1,0.1,0.2,0.3c-0.1,1.1-1.1,1.7-1.8,2.4
			c-1,1-2.2,1.9-3.2,2.8C818.9,518.3,816.7,518.5,810.6,515.1z"/>
		<path class="st7" d="M822.8,521.9c-2.6,3.2-5.9,5.7-9,8.2c-0.7,0.6-1.8,0.6-2.8,0.3c-2.2-0.7-4.4-1.3-6.5-1.9
			c-0.1-0.4-0.2-0.6-0.1-0.7c2.5-3.4,5.8-6.1,9.5-8.1c1.5-0.8,3.1,0.3,4.6,0.7C820,520.7,821.4,520.9,822.8,521.9z"/>
		<path class="st7" d="M797.5,541c3.2-3.2,6.1-6.7,10.2-8.2c2.7-0.9,5.6,1,8.4,1.8c-0.2,1.5-1.3,2.2-2.1,3c-0.7,0.7-1.7,1.2-2.3,2
			C807.7,545,802.9,543.8,797.5,541z"/>
		<path class="st7" d="M843.1,483.1c-1.2,2.2-3.3,3.2-4.6,4.9c-3.8,4.8-8.2,4.7-13.1,2.2c-0.2-0.1-0.4-0.2-0.6-0.3
			c-0.3-0.5-0.2-0.9,0.1-1.1c2.8-2.5,5.4-5.2,8.6-7.2c0.7-0.4,1.4-0.6,2.3-0.4C838.1,481.7,840.5,482.4,843.1,483.1z"/>
		<path class="st7" d="M817.1,502.4c0-1.2,0.7-1.7,1.4-2.2c1.1-0.9,2.2-1.9,3.3-2.8c5.2-4.5,7.2-4.7,13.5-1.5c0,1-0.8,1.5-1.4,2.1
			c-1.3,1.2-3,2.2-4.1,3.7c-2.8,3.6-6.1,3.5-9.8,1.9C819,503,818,502.7,817.1,502.4z"/>
		<path class="st7" d="M791.6,554.2c-0.1-0.8,0.4-1.3,1-1.8c2-1.7,4-3.4,6-5.1c1.8-1.5,3.7-2.1,6-1.2c1.7,0.6,3.6,0.8,5.2,1.7
			c-0.1,1.2-1.1,1.8-1.8,2.5c-1,1-2.2,1.9-3.2,2.8C799.7,557.3,797.7,557.5,791.6,554.2z"/>
		<path class="st7" d="M860.9,490.5c2.5,3.2,4.1,6.8,4.8,11.3c-3.8-1.1-7.4-2-10.9-3.1c-1.3-0.4-1.2-1.4-0.3-2.2
			C856.5,494.5,858.6,492.6,860.9,490.5z"/>
		<path class="st7" d="M816.9,487.3c3.5-2.9,6.5-5.8,10.2-7.9c1.3-0.7,2.9,0,4.2,0.8c0,1.1-0.7,1.5-1.3,2c-1.8,1.5-3.7,2.9-5.3,4.5
			C822.5,488.8,820.2,489,816.9,487.3z"/>
		<path class="st7" d="M790.5,539.3c0.9-2.1,2.7-2.8,4-4c1.3-1.2,2.8-2.1,4.1-3.3c1.9-1.7,3.9-1.3,5.9-0.5c0.3,0.8-0.1,1.2-0.5,1.6
			c-2.6,2.1-5.2,4.2-7.8,6.3C794.5,540.9,792.7,539.6,790.5,539.3z"/>
		<path class="st7" d="M803,512.9c2.9-2.3,5.5-4.4,8.1-6.6c1.9-1.7,3.8-1.7,6-0.8c0.1,0.1,0.2,0.2,0.3,0.3c0.1,1-0.7,1.4-1.2,1.9
			c-1.7,1.4-3.4,2.6-5,4.2C809,514.1,806.5,514.7,803,512.9z"/>
		<path class="st7" d="M809.7,500c2.3-2.7,5.3-4.5,7.8-6.7c2-1.8,4.1-1.8,6.3-0.7c0.2,1-0.5,1.5-1.1,2c-1.6,1.4-3.4,2.6-4.9,4.1
			C815.5,501,813,501.8,809.7,500z"/>
		<path class="st7" d="M796.8,525.9c3.4-2.9,6.4-5.8,9.9-7.8c1.3-0.8,3-0.1,4.3,0.5c0.3,1-0.5,1.5-1.1,2c-1.8,1.5-3.8,3-5.5,4.6
			C802.2,527.3,799.9,527.5,796.8,525.9z"/>
		<path class="st7" d="M798.2,544.5c0.2,1.2-0.6,1.7-1.2,2.2c-1.7,1.4-3.4,2.7-5,4.2c-2.2,2.1-4.6,3.2-7.6,1.2
			c-0.2-0.7,0.5-1.1,1-1.5c2.3-1.9,4.7-3.6,6.9-5.6C794.3,543.2,796.2,543.7,798.2,544.5z"/>
		<path class="st7" d="M820.6,565c-1.5,2.3-3.1,3.8-4.8,5.5c-2.9-3.2-6-6.1-9.6-8.7C811,562.2,815.6,563.6,820.6,565z"/>
		<path class="st7" d="M798.1,511.4c4.2-2.9,7-7.3,12.3-8.1c0.6,1.5-0.3,1.9-0.8,2.4c-2.3,1.9-4.7,3.8-7.1,5.6
			C801.2,512.3,799.9,512.9,798.1,511.4z"/>
		<path class="st7" d="M792.2,543.2c-3.7,2.8-6.9,5.4-10.3,7.9c-0.8,0.6-1.8,0.2-2.6-0.4C781.9,546.6,789.1,542,792.2,543.2z"/>
		<path class="st7" d="M792,524.6c4.1-5.1,9.8-8.5,12.3-7.7c0.2,0.8-0.4,1.2-0.9,1.5c-2.5,2-5.1,4.1-7.7,6.1
			C794.7,525.4,793.4,525.8,792,524.6z"/>
		<path class="st7" d="M804.4,498.4c4.3-2.8,7-7.5,12.7-7.9c0.1,1.4-0.6,1.8-1.1,2.2c-2.4,2-4.8,3.9-7.3,5.8
			C807.2,499.6,806.7,499.6,804.4,498.4z"/>
		<path class="st7" d="M785.2,537.5c4.3-3,7.1-7.5,13-8.1C796.3,533.4,788,538.7,785.2,537.5z"/>
		<path class="st7" d="M824.3,477.8c0.4,1,0.2,1.4-0.2,1.6c-2.8,2.3-5.7,4.6-8.6,6.8c-1,0.8-2.2,0.8-3.6-0.3
			C816,482.9,818.9,478.6,824.3,477.8z"/>
		<path class="st7" d="M826.3,581.1c-1,1.8-1.8,3.3-2.7,5.2c-0.8-2.3-1.4-4.2-2.1-6.4C823.2,580.3,824.6,580.7,826.3,581.1z"/>
		<path class="st7" d="M852.1,483.2c-3-0.7-6-1.3-8.8-2.8C844.5,478.9,848,480,852.1,483.2z"/>
		<path class="st7" d="M841.8,478.6c-2.5,1.6-4.6,0.4-6.8-0.2C836.8,476.9,838.4,476.9,841.8,478.6z"/>
		<path class="st7" d="M827.7,586.7c-0.2,0-0.3,0.1-0.5,0.1c0.1-0.2,0.1-0.3,0.2-0.5C827.5,586.5,827.6,586.6,827.7,586.7z"/>
	</g>
</g>
<g id="_x28_سهامی___________خاص_x29_">
</g>
<g id="رایان_بورس_xA0_Image_1_">
</g>
<g id="دانـش_بنیـان">
</g>
<g id="Layer_28_xA0_Image_1_">
</g>
<g id="Layer_28_copy_xA0_Image_1_">
</g>
</svg>
