<?xml version="1.0" encoding="utf-8"?>
<!-- Generator: Adobe Illustrator 25.3.0, SVG Export Plug-In . SVG Version: 6.00 Build 0)  -->
<svg version="1.1" id="Logo" xmlns="http://www.w3.org/2000/svg" xmlns:xlink="http://www.w3.org/1999/xlink" x="0px" y="0px"
	 width="430px" height="248px" viewBox="0 0 430 248" style="enable-background:new 0 0 430 248;" xml:space="preserve">
<style type="text/css">
	.st0{fill:white;}
	.st1{fill:white;}
</style>
<g>
	<path class="st0" d="M315.5,94.4c-2.5-8.7-14.8-47.2-55.1-70.5c-49.2-28.4-99.5-10.7-106.1-8.3c8.5-2.2,17.3,0.5,22.1,6.6
		c4,5.2,3.7,11.2,3.5,14.6c-0.7,11.5-8,19.3-16.6,28.5c-8.8,9.4-15.2,12.5-19.2,14c-7.5,2.7-11.5,1.6-13,1.1c-0.6-0.2-5.6-2-8.1-6.8
		c-4.4-8.3,1.8-19.9,8.9-24.6c5.2-3.3,10.6-3.5,10.6-3.5c1.5,0,2.7,0.1,3.5,0.3c-4,2.7-6.4,5.5-7.9,7.5c-2.5,3.3-2.9,5.3-3,6.2
		c-0.1,1-0.5,4,1.6,6.1c0.3,0.3,1.5,1.4,4.9,1.8c5.7,0.6,10.3-1.7,11.7-2.5c1-0.5,5.2-2.9,8.3-8c1.3-2.1,4.7-7.6,3.1-14.4
		c-0.3-1.1-1.2-4.8-4.4-7.9c-4.3-4.1-10-4.4-13.4-4.6c-14.1-0.7-26.2,8.6-30.5,12.3c-5.3,4.5-20.7,19.1-19.7,39.1
		c0.2,3.8,0.6,11.5,6.2,17.8c5.4,6,13.2,8.1,21.9,8.8c18.1,1.6,31.3-3.4,58.8-12.7c7.9-2.7,31.3-10.5,60.1-17.3
		c9-2.1,19.9-4.4,33.5-2.2c14.3,2.3,23.4,8.4,25.5,9.8c6.1,4.2,10.6,8.7,13.1,12C316,96.6,315.9,95.6,315.5,94.4z"/>
	<path class="st1" d="M245.7,132.5c19.9-7.1,39.5-15.3,58.1-25.2c18.5-9.9,35.1-22,51.5-34.9c5.9-4.6,13.4-11.3,12.7-19.4
		c-0.5-5.3-4.4-9-5.1-9.7c-3.6-3.4-8.1-4.4-18.7-5c-10.6-0.6-21.5-0.5-32.1,0.6c-5.3,0.5-12.5,1.4-21.2,2.9
		c-5.8-5-11.6-10.1-17.4-15.1c1.2,1.1,11.2-1.6,13.1-1.8c5.1-0.7,10.2-1.4,15.3-2.1c9.5-1.3,18.9-2.5,28.4-3.5
		c14.5-1.6,29.1-2.6,43.7-2.9c12.3-0.3,27.7-2,38.3,5.4c3.3,2.3,6.5,5.7,7.8,8.7c5.3,11.5-10.6,29.3-18.2,37.3
		c-32.3,33.8-71,54-88.7,62.8c-19.3,9.6-45.2,21.5-76.8,33.4C239.4,153.3,242.5,142.9,245.7,132.5z"/>
	<path class="st1" d="M77.5,124.7c0.4,5.5,0.7,10.9,1.1,16.4c-9.9,8.9-16.9,17.1-21.6,23.2c-3.7,4.9-6.5,9.2-7.4,15.2
		c-0.3,1.9-1.1,7.8,2,13.3c3.7,6.7,11.5,9.3,17.1,10.6c33.2,8.1,70.4,1.4,70.4,1.4c52.4-9.5,78.5-14.2,84-15.7
		c11.7-3.2,47.4-13.6,90.5-34.5c34.9-17,59-33.2,66.5-38.4c12-8.3,21.7-15.8,28.8-21.6c-19.4,18.2-48.2,42.1-87.1,64.4
		c-3.5,2-18,10.2-36.5,18.8c0,0-68.5,31.8-153.6,44.1c0,0-17.4,2.5-43.3,2.9c-11,0.2-26.5,0-44.5-5.4c-12.4-3.7-17.2-7.2-19.9-11.6
		c-4.9-7.8-2.8-17-1.7-21.6C29.3,156.4,69.9,129.6,77.5,124.7z"/>
	<path class="st0" d="M260.1,172.6c-11.9,3.9-23.8,7.9-35.7,11.8c2.5-5.5,5.9-8.8,8.1-10.6c2-1.7,11.3-9.3,20.6-6.2
		C256.5,168.8,258.8,171.1,260.1,172.6z"/>
	<g>
		<path class="st0" d="M85.7,90.9c-0.7,2.3-5.6,19.5,5.3,34.8c11.8,16.7,32.3,17.1,35.4,17.2c6.2,0.1,10.9-1.1,13.8-1.9
			c34.2-9.2,63.8-17.8,82.7-21.8c11.5-2.4,22.4-5.8,37.1-5c7.7,0.4,14,1.7,18.2,2.7c-11.9,4.3-23.8,8.5-35.7,12.8
			c-1.3,0.4-2.2,1.5-2.5,2.7c-2.3,8.6-4.5,17.3-6.8,25.9c-1.1,4.1-3.3,7.8-6.4,10.7c-2.7,2.5-5.6,5.7-8.2,9.6
			c-2.1,3.1-3.1,5.1-4.3,7.8c-25.6,5.9-66.5,12.8-101,16.9c-7-6.8-17.2-18.6-24.4-35.6c-2.2-5.1-8.9-22.1-8.5-45.2
			C80.9,109.3,83.4,98.4,85.7,90.9z"/>
		<path class="st0" d="M305.7,138.1c-11.9,5.6-23.8,11.2-35.6,16.8c2.5,2.4,5.1,5.7,7.1,9.9c0.3,0.7,0.6,1.4,0.8,2.1
			c10.3-4.4,20.6-8.7,31-13.1c0.3-1.8,0.6-4.6-0.1-8C308.2,142.3,306.7,139.7,305.7,138.1z"/>
		<path class="st0" d="M304.9,171.8c-10.4,5.1-20.7,10.2-31.1,15.3c-1.2,1.9-3.8,5.3-8.3,7.7c-6.9,3.7-13.6,2.8-15.7,2.5
			c-7.7,2.8-15.5,5.6-23.2,8.4c3.2,2.8,9.7,7.6,19.1,9.5c14.2,2.9,25.6-2.8,30.1-5.1C297.6,199.2,303.8,176.3,304.9,171.8z"/>
		<path class="st0" d="M142.8,224.3c18.2-1.9,37.3-5.4,57-11.2c2-0.6,4-1.2,5.9-1.8c0.5,2.8,1.9,8.3,6.2,13.8
			c4.8,6.1,10.6,8.8,13.3,9.9c-9,2-22.1,3.8-37.8,2.3C167.3,235.6,151.9,229.1,142.8,224.3z"/>
	</g>
</g>
</svg>
