<svg id="Logo" xmlns="http://www.w3.org/2000/svg" viewBox="0 0 445.85 262.44"><defs><style>.cls-1{fill:#fff;}</style></defs><path class="cls-1" d="M328.29,98.59c-2.81-9.9-16.5-53.83-61.5-80.4C212-14.16,155.91,5.94,148.56,8.72c9.49-2.51,19.24.52,24.59,7.57,4.5,5.91,4.17,12.82,3.94,16.71-.75,13.1-8.89,22-18.44,32.47-9.81,10.73-17,14.24-21.44,15.92-8.37,3.12-12.84,1.85-14.51,1.25a17,17,0,0,1-9-7.72c-4.89-9.51,2-22.76,9.93-28.06a24.5,24.5,0,0,1,11.83-3.94,20,20,0,0,1,3.94.32,36.06,36.06,0,0,0-8.83,8.51c-2.79,3.82-3.19,6-3.31,7.09s-.47,4.62,1.79,6.94c.33.34,1.67,1.64,5.52,2A22.7,22.7,0,0,0,147.65,65a25.78,25.78,0,0,0,9.3-9.14c1.45-2.41,5.22-8.68,3.47-16.39a18,18,0,0,0-4.88-9c-4.84-4.71-11.18-5-15-5.2-15.73-.76-29.22,9.84-34,14-5.87,5.1-23,21.84-21.91,44.61.21,4.31.65,13.15,6.93,20.34,6,6.86,14.74,9.24,24.43,10.09,20.17,1.77,34.91-3.89,65.58-14.5,8.81-3,34.85-12,67-19.69,10-2.39,22.2-5.07,37.36-2.52a70,70,0,0,1,28.37,11.2,67.63,67.63,0,0,1,14.66,13.7A21.41,21.41,0,0,0,328.29,98.59Z"/><path class="cls-1" d="M250.41,142c22.19-8.12,44-17.44,64.71-28.81s39.08-25.08,57.36-39.8c6.57-5.3,15-12.86,14.12-22.19-.54-6-4.85-10.25-5.68-11-4.06-3.87-9-5-20.81-5.68a231,231,0,0,0-35.78.63c-5.86.6-14,1.58-23.64,3.31L281.3,21.19c1.35,1.2,12.5-1.8,14.59-2.1,5.67-.82,11.35-1.64,17-2.42,10.55-1.46,21.1-2.83,31.68-4Q368.81,10,393.23,9.39c13.67-.3,30.89-2.33,42.69,6.13,3.71,2.66,7.23,6.51,8.74,9.93,5.86,13.16-11.83,33.44-20.33,42.56-36,38.61-79.1,61.57-98.83,71.64a880.15,880.15,0,0,1-85.6,38.07Q245.17,159.87,250.41,142Z"/><path class="cls-1" d="M63,133.12q.6,9.34,1.19,18.68a191,191,0,0,0-24,26.52c-4.12,5.54-7.29,10.47-8.2,17.34-.28,2.16-1.18,9,2.21,15.13,4.14,7.67,12.77,10.57,19,12.14,37,9.27,78.5,1.58,78.5,1.58,58.36-10.83,87.55-16.24,93.63-18A596.45,596.45,0,0,0,326.27,167.1a570.48,570.48,0,0,0,74.09-43.82c13.34-9.42,24.2-18,32.15-24.59a517.56,517.56,0,0,1-97.1,73.45c-3.92,2.3-20,11.67-40.67,21.44,0,0-76.35,36.3-171.18,50.29a411.74,411.74,0,0,1-48.24,3.31c-12.21.19-29.5,0-49.65-6.15-13.88-4.18-19.14-8.16-22.23-13.21C-2,218.91.36,208.46,1.55,203.23,9.25,169.33,54.48,138.77,63,133.12Z"/><path class="cls-1" d="M266.51,187.85l-39.84,13.48a33.85,33.85,0,0,1,9-12.06c2.28-1.94,12.55-10.63,22.93-7.09A17.82,17.82,0,0,1,266.51,187.85Z"/><path class="cls-1" d="M72.15,94.57c-.78,2.68-6.19,22.25,5.92,39.72,13.18,19,36,19.55,39.48,19.63a50.3,50.3,0,0,0,15.37-2.13C171.09,141.26,204,131.52,225.14,127c12.79-2.76,25-6.56,41.37-5.67a109.24,109.24,0,0,1,20.34,3.07L247,138.91a4.56,4.56,0,0,0-2.83,3.13q-3.78,14.79-7.57,29.57a25.75,25.75,0,0,1-7.09,12.22,61.13,61.13,0,0,0-9.1,11,49.58,49.58,0,0,0-4.75,8.85c-28.55,6.74-74.12,14.63-112.53,19.29A125.56,125.56,0,0,1,75.94,182.3a130.66,130.66,0,0,1-9.46-51.54A133.73,133.73,0,0,1,72.15,94.57Z"/><path class="cls-1" d="M317.35,148.46l-39.72,19.15A37.38,37.38,0,0,1,285.51,179c.35.81.67,1.59.94,2.37L321,166.46A25.14,25.14,0,0,0,317.35,148.46Z"/><path class="cls-1" d="M316.48,186.94l-34.69,17.52a26.06,26.06,0,0,1-9.3,8.83A26.84,26.84,0,0,1,255,216.13l-25.85,9.61a46.46,46.46,0,0,0,21.28,10.88c15.88,3.31,28.52-3.23,33.57-5.84C308.34,218.19,315.25,192,316.48,186.94Z"/><path class="cls-1" d="M135.72,246.87a355.19,355.19,0,0,0,63.52-12.77q3.34-1,6.63-2a36,36,0,0,0,21.75,27.11A133.2,133.2,0,0,1,135.72,246.87Z"/></svg>