<?xml version="1.0" encoding="utf-8"?>
<!-- Generator: Adobe Illustrator 25.3.0, SVG Export Plug-In . SVG Version: 6.00 Build 0)  -->
<svg version="1.1" id="Layer_1" xmlns="http://www.w3.org/2000/svg" xmlns:xlink="http://www.w3.org/1999/xlink" x="0px" y="0px"
	 viewBox="0 0 666.7 666.7" style="enable-background:new 0 0 666.7 666.7;" xml:space="preserve">
<style type="text/css">
	.st0{fill:none;}
	.st1{clip-path:url(#SVGID_2_);}
	.st2{fill:#BBDEF2;}
	.st3{fill:#D9ECF4;}
	.st4{fill:#EA6C6C;}
	.st5{fill:#140B38;}
	.st6{fill:#F49F9F;}
	.st7{fill:#E87777;}
	.st8{fill:#22386B;}
	.st9{fill:#FFFFFF;}
	.st10{fill:#58C3ED;}
	.st11{fill:#27ADD6;}
	.st12{fill:#EEF4FF;}
	.st13{fill:#EBF3F7;}
	.st14{fill:#7CC0D8;}
	.st15{fill:#FDFFFF;}
	.st16{fill:#B1E1F2;}
	.st17{clip-path:url(#SVGID_4_);}
</style>
<g id="g10" transform="matrix(1.333333, 0, 0, -1.333333, 0, 666.666687)">
	<path id="path12" class="st0" d="M0,0h500v500H0V0z"/>
	<g id="g14">
		<g>
			<defs>
				<path id="SVGID_1_" d="M194.5,462.8v-7.9C103.6,437.1,35,356.9,35,260.8l0,0c0-96.9,69.7-177.6,161.7-194.5l0,0V11.2h148.2v86.6
					c46.1,31.7,78.1,82.5,84.6,141l0,0c0.5,4.8,62.5,55.5,62.5,55.5l0,0l-26.1,83.6L408.9,351c-20.4,39.7-53.7,71.6-94.5,90.1l0,0
					v21.8L194.5,462.8z"/>
			</defs>
			<clipPath id="SVGID_2_">
				<use xlink:href="#SVGID_1_"  style="overflow:visible;"/>
			</clipPath>
			<g id="g16" class="st1">
				<g id="g22" transform="translate(430.625,260.8042)">
					<path id="path24" class="st2" d="M0,0c0-109.3-88.6-197.8-197.8-197.8S-395.7-109.3-395.7,0s88.6,197.8,197.8,197.8
						S0,109.3,0,0"/>
				</g>
				<g id="g26" transform="translate(69.6323,311.7085)">
					<path id="path28" class="st3" d="M0,0c-36.4,0-66-29.6-66-66s29.6-66,66-66c36.4,0,66,29.6,66,66S36.4,0,0,0 M0-135
						c-38.1,0-69,31-69,69s31,69,69,69s69-31,69-69S38.1-135,0-135"/>
				</g>
				<g id="g30" transform="translate(69.6323,303.4585)">
					<path id="path32" class="st3" d="M0,0c-31.8,0-57.7-25.9-57.7-57.7c0-31.8,25.9-57.7,57.7-57.7s57.7,25.9,57.7,57.7
						C57.7-25.9,31.8,0,0,0 M0-118.5c-33.5,0-60.8,27.3-60.8,60.8C-60.8-24.2-33.5,3.1,0,3.1s60.8-27.3,60.8-60.8
						C60.8-91.3,33.5-118.5,0-118.5"/>
				</g>
				<g id="g42" transform="translate(391.5488,123.6729)">
					<path id="path44" class="st3" d="M0,0c-2.6,0-5.2,0.2-7.8,0.6c-16.3,2.6-31.1,13.3-38.7,28c-4.8,9.4-6.8,20.3-8.8,30.8
						c-2.7,14.9-5.3,29.1-15.5,39c-9.7,9.4-24.5,13.2-46.7,12c-2.8-0.2-5.6-0.3-8.4-0.5c-14.3-1-29-2-42.7,2.9
						c-16.3,6-30.4,20.8-39.7,41.8c-4.9,11.2-8.3,23.1-11.6,34.6c-1.9,6.8-3.9,13.9-6.2,20.7c-7.5,22.3-17.6,37.7-30.6,47
						c-21.9,15.7-55.2,13-74.3-6l-2.2,2.2c20.1,20,55.2,22.8,78.3,6.3c13.6-9.7,24-25.6,31.7-48.6c2.3-6.9,4.3-14,6.3-20.8
						c3.2-11.4,6.6-23.2,11.5-34.2c8.9-20.2,22.4-34.5,38-40.2c13-4.8,27.4-3.7,41.4-2.8c2.8,0.2,5.7,0.4,8.5,0.6
						c14.5,0.8,35.4,0.3,49-12.9C-57.8,89.9-55,74.6-52.3,59.9c1.9-10.3,3.8-20.9,8.5-29.9C-36.7,16.1-22.7,6-7.4,3.6
						C8,1.2,24.4,6.5,35.4,17.5l2.2-2.2C27.7,5.6,13.9,0,0,0"/>
				</g>
				<g id="g46" transform="translate(113.0176,396.8491)">
					<path id="path48" class="st3" d="M0,0c-6.6,0-5.6-10.2,0.9-10.2C7.4-10.2,6.5,0,0,0"/>
				</g>
				<g id="g50" transform="translate(337.459,189.9775)">
					<path id="path52" class="st3" d="M0,0c-6.6,0-5.6-10.2,0.9-10.2C7.4-10.2,6.5,0,0,0"/>
				</g>
				<g id="g54" transform="translate(366.3643,135.001)">
					<path id="path56" class="st3" d="M0,0c-6.6,0-5.6-10.2,0.9-10.2C7.4-10.2,6.5,0,0,0"/>
				</g>
				<g id="g58" transform="translate(290.417,238.7197)">
					<path id="path60" class="st3" d="M0,0c-6.6,0-5.6-10.2,0.9-10.2C7.4-10.2,6.5,0,0,0"/>
				</g>
				<g id="g62" transform="translate(186.1309,277.8271)">
					<path id="path64" class="st3" d="M0,0c-6.6,0-5.6-10.2,0.9-10.2C7.4-10.2,6.5,0,0,0"/>
				</g>
				<g id="g66" transform="translate(186.5752,139.6162)">
					<path id="path68" class="st3" d="M0,0c-28.3,0-51.3-23-51.3-51.3s23-51.3,51.3-51.3s51.3,23,51.3,51.3S28.3,0,0,0 M0-105.1
						c-29.6,0-53.7,24.1-53.7,53.7S-29.6,2.4,0,2.4s53.7-24.1,53.7-53.7S29.6-105.1,0-105.1"/>
				</g>
				<g id="g70" transform="translate(186.5752,133.1963)">
					<path id="path72" class="st3" d="M0,0c-24.8,0-44.9-20.2-44.9-44.9c0-24.8,20.2-44.9,44.9-44.9s44.9,20.2,44.9,44.9
						C44.9-20.2,24.8,0,0,0 M0-92.2c-26.1,0-47.3,21.2-47.3,47.3S-26.1,2.4,0,2.4s47.3-21.2,47.3-47.3S26.1-92.2,0-92.2"/>
				</g>
				<g id="g78" transform="translate(482.4687,296.6152)">
					<path id="path80" class="st4" d="M0,0l-31.6,14l-65.6-137.7l-40.1,58.9l-39.4-80.7h-184.4l-116.4-116.4l-21.7,21.7l125.4,125.4
						h178l54.3,111l39.7-58.4l42.2,88.5l-30.4,13.5L-22,74.1L0,0z"/>
				</g>
				<g id="g82" transform="translate(186.8892,368.2891)">
					<path id="path84" class="st5" d="M0,0c-2,0.3-4.4,0.9-6.9,2.1c-11,4.8-19.3,2.7-19.3,2.7L-35-7.6c0,0,0.7,7-3.7,8.7
						C-40.2,1.6-42,0.7-43.3-1c0.5,3.7,0.3,8.5-0.4,13.8c-1.1,7.7,8.2,8.3,8.2,8.3s-3.5,3.8,4.9,7.5c8.3,3.7,17.3-7.6,29.1-11.8
						c11.9-4.2,16.1-2.2,13.8-9.1C10.5,2.4,6.6-0.9,0,0"/>
				</g>
				<g id="g86" transform="translate(168.3784,332.1333)">
					<path id="path88" class="st6" d="M0,0c-0.5-0.2-1-0.4-1.5-0.5c-9.7-2.7-17,5.8-17.4,6.3c0.2-0.7,3.4-11,14-13l-4.8-9.5
						l-20.7,21l3.6,8.3l3.1,7.2c-5.3,5-4,11.9-1.2,15.4c1.4,1.7,3.1,2.6,4.6,2.1c4.4-1.6,3.7-8.7,3.7-8.7L-7.7,41
						c0,0,8.3,2.1,19.3-2.7c2.6-1.1,4.9-1.8,6.9-2.1c-1-4.9-4.9-22.8-12.2-31.5h0v0C4.9,3,3.5,1.7,1.9,0.9C1.2,0.5,0.6,0.2,0,0"/>
				</g>
				<g id="g90" transform="translate(166.875,331.6318)">
					<path id="path92" class="st5" d="M0,0l-3.4-6.8c-10.6,2-13.8,12.3-14,13C-17,5.8-9.7-2.7,0,0"/>
				</g>
				<g id="g94" transform="translate(175.2178,358.1138)">
					<path id="path96" class="st4" d="M0,0c0,0,0.6-14.1-0.1-15.9C-0.9-17.6-6-13.5-6-13.5l-3.5,0.6L0,0z"/>
				</g>
				<g id="g98" transform="translate(147.6685,366.8013)">
					<path id="path100" class="st7" d="M0,0c-0.9,0.5-1.9,0.4-2.8-0.1c-0.9-0.6-1.4-1.6-1.9-2.6c-0.3-0.7,0.7-1.2,1-0.5
						C-3.3-2.5-3-1.7-2.3-1.2c0.7,0.5,1.4,0.6,2,0C1.1-2.5,1-4.4,0.6-6.1C0.4-6.8,0.2-7.5-0.3-8.2c-0.3-0.5-1-1.1-1.6-1.1
						c-0.7,0.1-0.7,1.1-0.6,1.6C-2.4-7.3-2.3-6.9-2-6.7c0.1,0.1,0.5,0.1,0.5,0C-1.1-7.4,0-7-0.3-6.4c-0.3,0.7-1.2,1-1.9,0.8
						c-0.8-0.3-1.2-1.2-1.3-2c-0.1-0.8,0-1.7,0.6-2.2c0.7-0.6,1.7-0.6,2.4-0.1C1-9.1,1.6-7.1,1.9-5.4C2.2-3.5,1.8-1.1,0,0"/>
				</g>
				<g id="g102" transform="translate(164.5254,339.8638)">
					<path id="path104" class="st5" d="M0,0c-2.5,0.6-4.6,2.4-5.7,4.6C-5.9,4.9-6.1,5.1-6.5,5c-0.3-0.1-0.5-0.5-0.3-0.7
						c1.3-2.7,3.7-4.6,6.6-5.4C0.5-1.3,0.7-0.2,0,0"/>
				</g>
				<g id="g106" transform="translate(172.2256,365.8311)">
					<path id="path108" class="st5" d="M0,0c-2.3,1.1-4.8,1.5-7.3,1.3c-0.9-0.1-1.7-0.9-1.6-1.9C-8.7-1.5-7.9-2.2-7-2.1
						c0.3,0,0.5,0,0.8,0.1c0.1,0,0.8,0,0.8,0c-0.3,0-0.3,0-0.1,0c0,0,0.1,0,0.1,0c0.2,0,0.3,0,0.5,0c0.2,0,0.5-0.1,0.7-0.1
						c0.2,0,0.5-0.1,0.7-0.2c0.1,0,0.3-0.1,0.4-0.1c0.1,0,0.3,0,0.3-0.1c-0.2,0.1-0.3,0.1-0.1,0c0,0,0.1,0,0.1,0
						c0.1-0.1,0.3-0.1,0.4-0.2C-2-2.9-1.7-3-1.5-3.1c0.8-0.4,1.9,0,2.3,0.8C1.2-1.4,0.9-0.4,0,0"/>
				</g>
				<g id="g110" transform="translate(186.4937,357.7212)">
					<path id="path112" class="st5" d="M0,0c0,0.1-0.1,0.3-0.1,0.4C-0.2,0.7-0.4,1-0.6,1.2c-1.5,1.6-3.5,2.6-5.6,3
						C-7,4.4-8,3.7-8.2,2.8c-0.1-0.9,0.4-1.8,1.4-2c0.2,0,0.4-0.1,0.7-0.2c0.6-0.2,1.2-0.5,1.8-0.8C-3.8-0.5-3.3-1-2.8-1.5
						c0.3-0.3,0.9-0.4,1.2-0.4c0.4,0,0.9,0.3,1.2,0.6C-0.1-0.9,0.1-0.5,0,0"/>
				</g>
				<g id="g114" transform="translate(169.2578,359.043)">
					<path id="path116" class="st5" d="M0,0c0-1.4-1.2-2.6-2.6-2.6S-5.2-1.4-5.2,0s1.2,2.6,2.6,2.6S0,1.4,0,0"/>
				</g>
				<g id="g118" transform="translate(182.9771,353.811)">
					<path id="path120" class="st5" d="M0,0c0-1.4-1.2-2.6-2.6-2.6S-5.2-1.4-5.2,0s1.2,2.6,2.6,2.6S0,1.4,0,0"/>
				</g>
				<g id="g122" transform="translate(272.2891,62.2402)">
					<path id="path124" class="st8" d="M0,0c-0.6,0.1-1.1,0.2-1.6,0.3C-8.5,2.1-3,6-3,6l-21.2,96.7c0,0,9.1,12.5-2.4,21.6
						c-12.7,10-47.5,16.3-48.9,16.6c1.5-0.5,40.9-12.9,48.1-24.1c0.8-1.3,1.4-3.7,1.7-7.1v0c2.5-26-8.7-105-8.7-105
						c0.9-1.8-0.4-3.6-0.4-3.6c3.2-4.3,0.8-6.5,0.8-6.5c-0.9-0.2-1.7-0.4-2.6-0.5C-44.8-7.2-53.8-7-58.1-6.8
						c-1.6,0.1-2.5,0.2-2.5,0.2c-3.3,2.4,0,4.9,0,4.9l-5.2,96.5c-2.4,3.5,0,5.3,0,5.3s-46,3.3-68.5,7.8c-22.5,4.5-20.5,26-20.5,26
						l38,15.4c2.7-0.9,4.2-1.3,4.2-1.3l0.7,1.5c0,0,8.6-3.5,15.7,2.3c0,0,9.9-6.3,12.5-5.9c1.2,0.2-0.3,3.1-2.2,6.1
						c0.3-0.3,6.7-6.5,8-3.2c0.3,0.8,0,1.8-0.7,2.9c0,0.1,0.1,0.3,0.2,0.5h2.4h6.6h3.6h2.4c0,0,72.1-6.3,77.3-35.5
						C16.3,102.9,20.2,9,20.2,9s3.7-2.5,0-3.8c0,0,4.2-3.5,1.6-4.9c0,0-0.3,0-0.9-0.1C17.7-0.1,6.4-1,0,0"/>
				</g>
				<g id="g126" transform="translate(245.6108,186.5869)">
					<path id="path128" class="st5" d="M0,0c11.5-9.1,2.4-21.6,2.4-21.6l-1.5,7v0C0.5-11.2,0-8.8-0.8-7.5
						C-8,3.7-47.4,16.1-48.9,16.6C-47.5,16.3-12.7,10,0,0"/>
				</g>
				<g id="g130" transform="translate(221.6597,176.3584)">
					<path id="path132" class="st5" d="M0,0c-4.6-3.2-8.8-6.9-12.5-11.1c-0.5-0.5,0.4-1.3,0.9-0.7C-8-7.7-3.8-4.1,0.7-0.9
						C1.3-0.5,0.6,0.4,0,0"/>
				</g>
				<g id="g134" transform="translate(212.4888,176.8574)">
					<path id="path136" class="st5" d="M0,0c-1.7-3-3.5-6-5.4-8.9c-0.4-0.6,0.5-1.3,0.9-0.7c2,3,3.8,6,5.5,9.1C1.4,0.2,0.4,0.6,0,0"
						/>
				</g>
				<g id="g138" transform="translate(216.812,162.4814)">
					<path id="path140" class="st5" d="M0,0c-0.1,0.3-0.5,0.5-0.7,0.3l-5.1-2.5c-0.3-0.1-0.5-0.4-0.3-0.7C-6-3.2-5.7-3.4-5.4-3.3
						C-3.7-2.4-2-1.6-0.3-0.7C-0.1-0.6,0.1-0.3,0,0"/>
				</g>
				<g id="g142" transform="translate(311.8623,46.5205)">
					<path id="path144" class="st5" d="M0,0c9.4-0.3,18.4-6.5,15.6-11.7c-2.8-5.2-19.7-7.7-19.7-7.7L-38.6-1.9l-0.9,17.7
						c6.4-1,17.7-0.1,20.9,0.2l0-0.4L0,0z"/>
				</g>
				<g id="g146" transform="translate(255.8408,38.2275)">
					<path id="path148" class="st5" d="M0,0c9.9-0.3,19.4-6.8,16.4-12.3c-3-5.5-20.7-8.1-20.7-8.1L-40.7-2l-1,19.3
						c4.3-0.2,13.3-0.4,21.4,0.9l0.7-1.7L0,0z"/>
				</g>
				<g id="g150" transform="translate(266.293,30.2783)">
					<path id="path152" class="st9" d="M0,0c-1.1,1.9-2.7,3.4-4.7,4.4c-0.7,0.3-1.1-0.7-0.5-1c1.8-0.9,3.3-2.3,4.2-4
						C-0.8-0.9-0.4-1-0.1-0.8C0.1-0.6,0.2-0.3,0,0"/>
				</g>
				<g id="g154" transform="translate(266.4863,27.8213)">
					<path id="path156" class="st9" d="M0,0c-0.3,0-0.5-0.3-0.5-0.6c0-0.1,0-0.1,0-0.2c0,0,0-0.1,0-0.1c0-0.1,0-0.2,0-0.3
						c0-0.1,0-0.2-0.1-0.4c0,0,0-0.1,0-0.1c0,0,0,0,0-0.1C-0.8-2-0.9-2.2-1-2.4c0-0.1-0.1-0.2-0.2-0.3c0,0,0,0,0-0.1c0,0,0,0,0,0
						c0,0-0.1-0.1-0.1-0.2c-0.2-0.2-0.2-0.6,0.1-0.8C-1-3.9-0.6-3.9-0.4-3.6c0.7,0.9,1,2,1,3.1C0.6-0.2,0.3,0,0,0"/>
				</g>
				<g id="g158" transform="translate(321.6348,39.4951)">
					<path id="path160" class="st9" d="M0,0c-0.7,1.5-1.9,2.7-3.3,3.3C-3.6,3.4-4,3.3-4.1,3c-0.1-0.3,0-0.6,0.3-0.8
						C-3.6,2.2-3.5,2.1-3.3,2c0.1,0,0.1-0.1,0.2-0.1c0,0,0.1,0,0.1,0c0,0,0,0,0.1,0c0.3-0.2,0.6-0.4,0.8-0.7C-2.1,1.1-2,1-2,1l0,0
						c0,0,0,0,0,0c0,0,0.1-0.1,0.1-0.1c0.1-0.1,0.2-0.3,0.3-0.4C-1.5,0.3-1.4,0.2-1.3,0c0,0,0-0.1,0.1-0.1c0,0,0.1-0.2,0,0
						c0-0.1,0.1-0.2,0.1-0.3c0.1-0.3,0.4-0.5,0.7-0.3C-0.1-0.6,0.1-0.3,0,0"/>
				</g>
				<g id="g162" transform="translate(321.873,36.6602)">
					<path id="path164" class="st9" d="M0,0c0,0.1-0.2,0.3-0.3,0.3C-0.6,0.4-0.9,0.3-1,0c-0.1-0.2-0.2-0.4-0.3-0.5
						C-1.5-0.8-1.7-1-1.9-1.2l0,0C-2-1.3-2.1-1.4-2.1-1.6c0-0.1,0-0.3,0.1-0.4C-2-2.1-1.8-2.2-1.7-2.2c0.1,0,0.3,0,0.4,0.1
						c0.5,0.5,1,1,1.2,1.7C0-0.3,0.1-0.1,0,0"/>
				</g>
				<g id="g166" transform="translate(308.6543,30.2959)">
					<path id="path168" class="st9" d="M0,0c-8.4,4.4-16.9,8.9-25.3,13.3l-7.3,3.8c-0.7,0.3-1.1-0.7-0.5-1
						c8.4-4.4,16.9-8.9,25.3-13.3L-0.5-1C0.2-1.4,0.6-0.3,0,0"/>
				</g>
				<g id="g170" transform="translate(253.5303,22.0137)">
					<path id="path172" class="st9" d="M0,0c-9.4,4.6-18.7,9.4-28,14.2c-2.6,1.4-5.2,2.7-7.8,4.1c-0.7,0.3-1.1-0.7-0.5-1
						C-27,12.4-17.8,7.6-8.4,2.9c2.6-1.3,5.3-2.6,7.9-4C0.2-1.4,0.7-0.3,0,0"/>
				</g>
				<g id="g174" transform="translate(232.272,66.4414)">
					<path id="path176" class="st5" d="M0,0c-5.6-1.2-11.3-2.4-16.9-3.6c-0.7-0.2-0.6-1.3,0.1-1.1c5.6,1.3,11.2,2.5,16.9,3.6
						C0.8-1,0.7,0.1,0,0"/>
				</g>
				<g id="g178" transform="translate(232.4565,62.5986)">
					<path id="path180" class="st5" d="M0,0c-3.8-0.5-7.6-1-11.4-1.4c-0.7-0.1-0.6-1.2,0.1-1.1c3.8,0.5,7.6,1,11.4,1.4
						C0.8-1,0.7,0.1,0,0"/>
				</g>
				<g id="g182" transform="translate(288.6133,73.3252)">
					<path id="path184" class="st5" d="M0,0c-5.2-1-10.5-1.9-15.8-2.5c-0.7-0.1-0.6-1.2,0.1-1.1C-10.4-3-5.1-2.1,0.1-1.1
						C0.8-1,0.7,0.1,0,0"/>
				</g>
				<g id="g186" transform="translate(287.7686,69.5322)">
					<path id="path188" class="st5" d="M0,0c-3.5-0.6-7-1-10.5-1.2c-0.7,0-0.6-1.2,0.1-1.1c3.5,0.1,7.1,0.5,10.5,1.2
						C0.8-1,0.7,0.1,0,0"/>
				</g>
				<g id="g190" transform="translate(171.9326,312.0962)">
					<path id="path192" class="st9" d="M0,0l-3.6-50L-24.9-1.9c1.3,2.6,3.3,3.9,5.2,4.6c3.3,1.2,6.5,0.5,6.5,0.5s3.9,1.1,8.5-0.5
						C-3.2,2.2-1.6,1.3,0,0"/>
				</g>
				<g id="g194" transform="translate(208.8174,263.9678)">
					<path id="path196" class="st10" d="M0,0v-49.6h-47.3l-1.2-2.7l-0.7-1.5c0,0-1.6,0.5-4.2,1.3l-38-15.4c-5,0.9-3.1,6.3-3.1,6.3
						c-1.7,3.2,1.6,3.8,1.6,3.8l1.5,19.7c-10.1,4.8-18.4,9.9-19.6,14.5c-3.2,12.7-0.4,66.9-0.4,66.9c-1,3.5,1.4,5.9,1.4,5.9
						s-2.8,2.8-2.8,5.3c-0.1,2.5,34,18.1,34.5,18.3c-1.1-5.2-3.8-21.2,1.4-33.7l9.2,0.8l-5.8-7.8l33.1-34l14.8,44.4l-6.4,4.3
						l7.2,4.5c-1,8.6-8.9,20.9-9.2,21.4v0h0c0.5-0.1,16.4-2.6,19.1-4.5c2.8-2-1.1-4.1-1.1-4.1s3.3-1.8,2.1-3.5L0,0z"/>
				</g>
				<g id="g198" transform="translate(154.5151,238.2803)">
					<path id="path200" class="st10" d="M0,0l-25.8,20.5l-3.1,37.7L-31.3,19L0,0z"/>
				</g>
				<g id="g202" transform="translate(199.7563,254.1943)">
					<path id="path204" class="st5" d="M0,0l6.7-39.8H3v21L-6.8-0.2l0.3,50L0,0z"/>
				</g>
				<g id="g206" transform="translate(186.354,214.1309)">
					<path id="path208" class="st6" d="M0,0c1.9-3,3.4-5.8,2.2-6.1c-2.6-0.5-12.5,5.9-12.5,5.9C-17.3-6-26-2.5-26-2.5l6.6,15.3
						c0,0,11.8,2.3,14,2.1c2.1-0.2,13-9.6,13.3-11.2c0.2-1.1-0.2-2.5-0.5-3.3C7.3,0.1,7.3-0.1,7.2-0.2c0.7-1.1,1-2.2,0.7-2.9
						C6.7-6.5,0.3-0.3,0,0"/>
				</g>
				<g id="g210" transform="translate(183.8589,315.3652)">
					<path id="path212" class="st11" d="M0,0l-7.2-4.5l6.4-4.3l-14.8-44.4l2.7,37.3l0.9,12.7c0,0-1.2,14.4-3.6,20
						c0.6,0.2,1.2,0.5,1.9,0.9c1.6,0.8,3,2.1,4.4,3.7C-8.9,20.9-1,8.6,0,0"/>
				</g>
				<g id="g214" transform="translate(171.9326,312.0962)">
					<path id="path216" class="st12" d="M0,0c-1.6,1.3-3.2,2.2-4.7,2.7c-4.6,1.7-8.5,0.5-8.5,0.5l4.8,9.5l3.4,6.8
						c0.5,0.1,1,0.3,1.5,0.5C-1.2,14.4,0,0,0,0"/>
				</g>
				<g id="g218" transform="translate(166.123,308.5078)">
					<path id="path220" class="st5" d="M0,0l4.9-9.1L2.2-46.4l-12.9,29.2L-10-1.3L0,0z"/>
				</g>
				<g id="g222" transform="translate(130.457,336.7466)">
					<path id="path224" class="st11" d="M0,0c0.2,1.1,0.4,1.7,0.4,1.7l10.7,6.2h0L7.5-0.4c-3.3-10.9,9-26.2,9-26.2l8.4-18.9
						l12.9-29.2l-33.1,34l5.8,7.8l-9.2-0.8C-3.8-21.2-1.1-5.3,0,0L0,0z"/>
				</g>
				<g id="g226" transform="translate(167.2051,314.8301)">
					<path id="path228" class="st5" d="M0,0l-1.1-6.3l-10-1.3L-15,0c3.3,1.2,6.5,0.5,6.5,0.5S-4.6,1.7,0,0"/>
				</g>
				<g id="g230" transform="translate(158.73,315.3652)">
					<path id="path232" class="st12" d="M0,0c0,0-3.2,0.7-6.5-0.5c-1.9-0.7-3.8-2.1-5.2-4.6c0,0-12.3,15.3-9,26.2L0,0z"/>
				</g>
				<g id="g234" transform="translate(128.7598,258.7393)">
					<path id="path236" class="st5" d="M0,0l25.8-20.5l-31.3,19l2.5,39.1L0,0z"/>
				</g>
				<g id="g238" transform="translate(108.0923,312.8613)">
					<path id="path240" class="st5" d="M0,0c-2.3,1.1-4.5,2.2-6.6,3.5c-0.6,0.4-1.1-0.7-0.5-1C-5,1.2-2.7,0.1-0.5-1
						C0.2-1.3,0.7-0.3,0,0"/>
				</g>
				<g id="g242" transform="translate(104.585,309.3716)">
					<path id="path244" class="st5" d="M0,0c-1,0.1-2,0-3-0.1c-0.3,0-0.6-0.3-0.5-0.6c0-0.3,0.3-0.6,0.6-0.5c0.5,0,0.9,0.1,1.4,0.1
						c0.2,0,0.4,0,0.7,0c0.1,0,0.2,0,0.3,0c0,0,0.1,0,0.1,0c0,0,0,0,0,0c0,0,0,0,0,0c0,0,0.1,0,0.1,0c0.2,0,0.3,0,0.4,0.1
						c0.1,0.1,0.2,0.2,0.2,0.4C0.5-0.4,0.3,0,0,0"/>
				</g>
				<g id="g246" transform="translate(191.4849,329.1309)">
					<path id="path248" class="st5" d="M0,0c-0.2,0.2-0.6,0.2-0.8-0.1C-1.9-1.3-3-2.3-4.4-3.2C-4.6-3.4-4.7-3.8-4.5-4
						C-4.3-4.3-4-4.3-3.7-4.2c1.4,1,2.7,2.1,3.8,3.4C0.3-0.6,0.2-0.2,0,0"/>
				</g>
				<g id="g250" transform="translate(191.9927,324.0459)">
					<path id="path252" class="st5" d="M0,0c-1.4-0.5-2.9-1-4.3-1.5C-5-1.8-4.6-2.8-3.9-2.6c1.4,0.5,2.9,1,4.3,1.5
						C1.1-0.8,0.7,0.2,0,0"/>
				</g>
				<g id="g254" transform="translate(171.8545,313.1128)">
					<path id="path256" class="st5" d="M0,0c-2.2,1.3-4.4,2.7-7,3.1c-2.2,0.3-4-0.2-5.9-1.1c-0.1,0.1-0.2,0.2-0.4,0.3
						c-2.3,0.4-4.6,0.2-6.8-0.6c-1.8-0.7-4.4-2-4.7-4.2c-0.1-0.7,1-0.9,1.1-0.2c0.2,1,0.9,1.6,1.7,2.1c0.8,0.6,1.7,1,2.7,1.4
						c1.6,0.6,3.4,0.7,5.1,0.5c-0.4-0.4,0.2-1.1,0.8-0.8c1,0.6,2,1.2,3.1,1.5c1.2,0.3,2.4,0.3,3.6,0C-4.5,1.4-2.4,0.2-0.5-1
						C0.1-1.4,0.6-0.4,0,0"/>
				</g>
				<g id="g258" transform="translate(154.9209,212.084)">
					<path id="path260" class="st5" d="M0,0c-9.5,3.7-19,7.5-28.5,11.2c-2.7,1.1-5.4,2.1-8.1,3.2c-0.7,0.3-1.2-0.8-0.5-1
						c9.5-3.7,19-7.5,28.5-11.2C-5.9,1.1-3.2,0-0.5-1C0.2-1.3,0.7-0.3,0,0"/>
				</g>
				<g id="g262" transform="translate(168.5273,229.1367)">
					<path id="path264" class="st5" d="M0,0c-10.7,7.3-21.4,14.6-32.1,21.8c-3,2.1-6,4.1-9.1,6.2c-0.6,0.4-1.3-0.5-0.7-0.9
						c10.7-7.3,21.4-14.6,32.1-21.8c3-2.1,6-4.1,9.1-6.2C-0.1-1.3,0.6-0.4,0,0"/>
				</g>
				<g id="g266" transform="translate(186.9316,214.1123)">
					<path id="path268" class="st4" d="M0,0c-2.3,2-4.6,4.1-6.9,6.1c-0.6,0.5-1.3-0.4-0.7-0.9c2.3-2,4.6-4.1,6.9-6.1
						C-0.2-1.4,0.6-0.5,0,0"/>
				</g>
				<g id="g270" transform="translate(192.7637,215.1992)">
					<path id="path272" class="st4" d="M0,0c-3,2.8-5.9,5.6-8.9,8.3C-9.4,8.8-10.1,8-9.6,7.5c3-2.8,5.9-5.6,8.9-8.3
						C-0.2-1.4,0.5-0.5,0,0"/>
				</g>
				<g id="g274" transform="translate(174.5024,202.1172)">
					<path id="path276" class="st13" d="M0,0h90.4L111,65.2H38.4L19.3,4.1H-1.3L0,0z"/>
				</g>
				<g id="g278" transform="translate(285.4727,267.3511)">
					<path id="path280" class="st3" d="M0,0l-74.8-65.2h54.2L0,0z"/>
				</g>
				<g id="g282" transform="translate(265.8682,207.1182)">
					<path id="path284" class="st14" d="M0,0h-70.9c-0.8,0-0.7-1.1,0.1-1.1H0.1C0.9-1.1,0.8,0,0,0"/>
				</g>
				<g id="g286" transform="translate(308.4307,446.2075)">
					<path id="path288" class="st10" d="M0,0v-5.5h-101.4V0c0,6.6,5.4,12,12,12H-12C-5.4,12,0,6.6,0,0"/>
				</g>
				<g id="g290" transform="translate(301.6982,449.5132)">
					<path id="path292" class="st8" d="M0,0c0-2.4-1.9-4.3-4.3-4.3S-8.6-2.4-8.6,0s1.9,4.3,4.3,4.3S0,2.4,0,0"/>
				</g>
				<g id="g294" transform="translate(284.873,449.4849)">
					<path id="path296" class="st6" d="M0,0c0-2.4-1.9-4.3-4.3-4.3c-2.4,0-4.3,1.9-4.3,4.3s1.9,4.3,4.3,4.3C-1.9,4.3,0,2.4,0,0"/>
				</g>
				<g id="g298" transform="translate(267.1055,449.4849)">
					<path id="path300" class="st15" d="M0,0c0-2.4-1.9-4.3-4.3-4.3c-2.4,0-4.3,1.9-4.3,4.3s1.9,4.3,4.3,4.3C-1.9,4.3,0,2.4,0,0"/>
				</g>
				<g id="g302" transform="translate(308.4346,440.7344)">
					<path id="path304" class="st9" d="M0,0v-139.5c0-6.9-5.4-12.5-12-12.5h-28.8l-21.4-17.2l1.6,17.2h-28.8c-6.6,0-12,5.6-12,12.5
						V0H0z"/>
				</g>
				<g id="g306" transform="translate(224.6157,433.1035)">
					<path id="path308" class="st10" d="M0,0l-8.2-14.2H8.2L0,0z"/>
				</g>
				<g id="g310" transform="translate(224.6157,392.8525)">
					<path id="path312" class="st4" d="M0,0l8.2,14.2H-8.2L0,0z"/>
				</g>
				<path id="path314" class="st16" d="M278.3,427.9h-40.7v5.2h40.7V427.9z"/>
				<path id="path316" class="st16" d="M300.6,424.7h-63v-5.8h63V424.7z"/>
				<path id="path318" class="st16" d="M278.3,401.9h-40.7v5.2h40.7V401.9z"/>
				<path id="path320" class="st16" d="M300.6,398.7h-63v-5.8h63V398.7z"/>
				<g id="g322" transform="translate(224.564,386.2534)">
					<path id="path324" class="st10" d="M0,0l-8.2-14.2H8.2L0,0z"/>
				</g>
				<g id="g326" transform="translate(224.6157,360.2383)">
					<path id="path328" class="st10" d="M0,0l-8.2-14.2H8.2L0,0z"/>
				</g>
				<path id="path330" class="st16" d="M278.2,381.1h-40.7v5.2h40.7V381.1z"/>
				<path id="path332" class="st16" d="M300.6,377.9h-63v-5.8h63V377.9z"/>
				<path id="path334" class="st16" d="M278.2,355.1h-40.7v5.2h40.7V355.1z"/>
				<path id="path336" class="st16" d="M300.6,351.9h-63V346h63V351.9z"/>
				<g id="g338" transform="translate(223.8462,322.2432)">
					<path id="path340" class="st4" d="M0,0l8.2,14.2H-8.2L0,0z"/>
				</g>
				<path id="path342" class="st16" d="M277.5,331.3h-40.7v5.2h40.7V331.3z"/>
				<path id="path344" class="st16" d="M299.9,328.1h-63v-5.8h63V328.1z"/>
				<g id="g346" transform="translate(223.7944,315.6445)">
					<path id="path348" class="st10" d="M0,0l-8.2-14.2H8.2L0,0z"/>
				</g>
				<path id="path350" class="st16" d="M277.4,310.5h-40.7v5.2h40.7V310.5z"/>
				<path id="path352" class="st16" d="M299.8,307.3h-63v-5.8h63V307.3z"/>
			</g>
		</g>
	</g>
	<g id="g354">
		<g>
			<defs>
				<rect id="SVGID_3_" x="-83.3" y="-83.3" width="666.7" height="666.7"/>
			</defs>
			<clipPath id="SVGID_4_">
				<use xlink:href="#SVGID_3_"  style="overflow:visible;"/>
			</clipPath>
			<g id="g356" class="st17">
				<g id="g362" transform="translate(282.3008,111.8135)">
					<path id="path364" class="st10" d="M0,0c0-1.5-1.2-2.7-2.7-2.7c-1.5,0-2.7,1.2-2.7,2.7s1.2,2.7,2.7,2.7C-1.2,2.7,0,1.5,0,0"/>
				</g>
				<g id="g366" transform="translate(293.4551,111.8135)">
					<path id="path368" class="st10" d="M0,0c0-1.5-1.2-2.7-2.7-2.7S-5.3-1.5-5.3,0s1.2,2.7,2.7,2.7S0,1.5,0,0"/>
				</g>
				<g id="g370" transform="translate(304.6094,111.8135)">
					<path id="path372" class="st10" d="M0,0c0-1.5-1.2-2.7-2.7-2.7S-5.3-1.5-5.3,0s1.2,2.7,2.7,2.7S0,1.5,0,0"/>
				</g>
				<g id="g374" transform="translate(315.7637,111.8135)">
					<path id="path376" class="st10" d="M0,0c0-1.5-1.2-2.7-2.7-2.7S-5.3-1.5-5.3,0s1.2,2.7,2.7,2.7S0,1.5,0,0"/>
				</g>
				<g id="g378" transform="translate(326.918,111.8135)">
					<path id="path380" class="st10" d="M0,0c0-1.5-1.2-2.7-2.7-2.7S-5.3-1.5-5.3,0s1.2,2.7,2.7,2.7S0,1.5,0,0"/>
				</g>
				<g id="g382" transform="translate(282.3008,100.4961)">
					<path id="path384" class="st10" d="M0,0c0-1.5-1.2-2.7-2.7-2.7c-1.5,0-2.7,1.2-2.7,2.7s1.2,2.7,2.7,2.7C-1.2,2.7,0,1.5,0,0"/>
				</g>
				<g id="g386" transform="translate(293.4551,100.4961)">
					<path id="path388" class="st10" d="M0,0c0-1.5-1.2-2.7-2.7-2.7S-5.3-1.5-5.3,0s1.2,2.7,2.7,2.7S0,1.5,0,0"/>
				</g>
				<g id="g390" transform="translate(304.6094,100.4961)">
					<path id="path392" class="st10" d="M0,0c0-1.5-1.2-2.7-2.7-2.7S-5.3-1.5-5.3,0s1.2,2.7,2.7,2.7S0,1.5,0,0"/>
				</g>
				<g id="g394" transform="translate(315.7637,100.4961)">
					<path id="path396" class="st10" d="M0,0c0-1.5-1.2-2.7-2.7-2.7S-5.3-1.5-5.3,0s1.2,2.7,2.7,2.7S0,1.5,0,0"/>
				</g>
				<g id="g398" transform="translate(326.918,100.4961)">
					<path id="path400" class="st10" d="M0,0c0-1.5-1.2-2.7-2.7-2.7S-5.3-1.5-5.3,0s1.2,2.7,2.7,2.7S0,1.5,0,0"/>
				</g>
				<g id="g402" transform="translate(282.3008,144.6494)">
					<path id="path404" class="st10" d="M0,0c0-1.5-1.2-2.7-2.7-2.7c-1.5,0-2.7,1.2-2.7,2.7s1.2,2.7,2.7,2.7C-1.2,2.7,0,1.5,0,0"/>
				</g>
				<g id="g406" transform="translate(293.4551,144.6494)">
					<path id="path408" class="st10" d="M0,0c0-1.5-1.2-2.7-2.7-2.7S-5.3-1.5-5.3,0s1.2,2.7,2.7,2.7S0,1.5,0,0"/>
				</g>
				<g id="g410" transform="translate(304.6094,144.6494)">
					<path id="path412" class="st10" d="M0,0c0-1.5-1.2-2.7-2.7-2.7S-5.3-1.5-5.3,0s1.2,2.7,2.7,2.7S0,1.5,0,0"/>
				</g>
				<g id="g414" transform="translate(315.7637,144.6494)">
					<path id="path416" class="st10" d="M0,0c0-1.5-1.2-2.7-2.7-2.7S-5.3-1.5-5.3,0s1.2,2.7,2.7,2.7S0,1.5,0,0"/>
				</g>
				<g id="g418" transform="translate(326.918,144.6494)">
					<path id="path420" class="st10" d="M0,0c0-1.5-1.2-2.7-2.7-2.7S-5.3-1.5-5.3,0s1.2,2.7,2.7,2.7S0,1.5,0,0"/>
				</g>
				<g id="g422" transform="translate(282.3008,133.333)">
					<path id="path424" class="st10" d="M0,0c0-1.5-1.2-2.7-2.7-2.7c-1.5,0-2.7,1.2-2.7,2.7s1.2,2.7,2.7,2.7C-1.2,2.7,0,1.5,0,0"/>
				</g>
				<g id="g426" transform="translate(293.4551,133.333)">
					<path id="path428" class="st10" d="M0,0c0-1.5-1.2-2.7-2.7-2.7S-5.3-1.5-5.3,0s1.2,2.7,2.7,2.7S0,1.5,0,0"/>
				</g>
				<g id="g430" transform="translate(304.6094,133.333)">
					<path id="path432" class="st10" d="M0,0c0-1.5-1.2-2.7-2.7-2.7S-5.3-1.5-5.3,0s1.2,2.7,2.7,2.7S0,1.5,0,0"/>
				</g>
				<g id="g434" transform="translate(315.7637,133.333)">
					<path id="path436" class="st10" d="M0,0c0-1.5-1.2-2.7-2.7-2.7S-5.3-1.5-5.3,0s1.2,2.7,2.7,2.7S0,1.5,0,0"/>
				</g>
				<g id="g438" transform="translate(326.918,133.333)">
					<path id="path440" class="st10" d="M0,0c0-1.5-1.2-2.7-2.7-2.7S-5.3-1.5-5.3,0s1.2,2.7,2.7,2.7S0,1.5,0,0"/>
				</g>
				<g id="g442" transform="translate(282.3008,122.0156)">
					<path id="path444" class="st10" d="M0,0c0-1.5-1.2-2.7-2.7-2.7c-1.5,0-2.7,1.2-2.7,2.7s1.2,2.7,2.7,2.7C-1.2,2.7,0,1.5,0,0"/>
				</g>
				<g id="g446" transform="translate(293.4551,122.0156)">
					<path id="path448" class="st10" d="M0,0c0-1.5-1.2-2.7-2.7-2.7S-5.3-1.5-5.3,0s1.2,2.7,2.7,2.7S0,1.5,0,0"/>
				</g>
				<g id="g450" transform="translate(304.6094,122.0156)">
					<path id="path452" class="st10" d="M0,0c0-1.5-1.2-2.7-2.7-2.7S-5.3-1.5-5.3,0s1.2,2.7,2.7,2.7S0,1.5,0,0"/>
				</g>
				<g id="g454" transform="translate(315.7637,122.0156)">
					<path id="path456" class="st10" d="M0,0c0-1.5-1.2-2.7-2.7-2.7S-5.3-1.5-5.3,0s1.2,2.7,2.7,2.7S0,1.5,0,0"/>
				</g>
				<g id="g458" transform="translate(326.918,122.0156)">
					<path id="path460" class="st10" d="M0,0c0-1.5-1.2-2.7-2.7-2.7S-5.3-1.5-5.3,0s1.2,2.7,2.7,2.7S0,1.5,0,0"/>
				</g>
				<g id="g462" transform="translate(69.6323,254.3877)">
					<path id="path464" class="st9" d="M0,0c0-1.5-1.2-2.7-2.7-2.7S-5.3-1.5-5.3,0s1.2,2.7,2.7,2.7S0,1.5,0,0"/>
				</g>
				<g id="g466" transform="translate(80.7866,254.3877)">
					<path id="path468" class="st9" d="M0,0c0-1.5-1.2-2.7-2.7-2.7S-5.3-1.5-5.3,0s1.2,2.7,2.7,2.7S0,1.5,0,0"/>
				</g>
				<g id="g470" transform="translate(91.9404,254.3877)">
					<path id="path472" class="st9" d="M0,0c0-1.5-1.2-2.7-2.7-2.7S-5.3-1.5-5.3,0s1.2,2.7,2.7,2.7S0,1.5,0,0"/>
				</g>
				<g id="g474" transform="translate(103.0947,254.3877)">
					<path id="path476" class="st9" d="M0,0c0-1.5-1.2-2.7-2.7-2.7S-5.3-1.5-5.3,0s1.2,2.7,2.7,2.7S0,1.5,0,0"/>
				</g>
				<g id="g478" transform="translate(114.249,254.3877)">
					<path id="path480" class="st9" d="M0,0c0-1.5-1.2-2.7-2.7-2.7S-5.3-1.5-5.3,0s1.2,2.7,2.7,2.7S0,1.5,0,0"/>
				</g>
				<g id="g482" transform="translate(69.6323,243.0713)">
					<path id="path484" class="st9" d="M0,0c0-1.5-1.2-2.7-2.7-2.7S-5.3-1.5-5.3,0s1.2,2.7,2.7,2.7S0,1.5,0,0"/>
				</g>
				<g id="g486" transform="translate(80.7866,243.0713)">
					<path id="path488" class="st9" d="M0,0c0-1.5-1.2-2.7-2.7-2.7S-5.3-1.5-5.3,0s1.2,2.7,2.7,2.7S0,1.5,0,0"/>
				</g>
				<g id="g490" transform="translate(91.9404,243.0713)">
					<path id="path492" class="st9" d="M0,0c0-1.5-1.2-2.7-2.7-2.7S-5.3-1.5-5.3,0s1.2,2.7,2.7,2.7S0,1.5,0,0"/>
				</g>
				<g id="g494" transform="translate(103.0947,243.0713)">
					<path id="path496" class="st9" d="M0,0c0-1.5-1.2-2.7-2.7-2.7S-5.3-1.5-5.3,0s1.2,2.7,2.7,2.7S0,1.5,0,0"/>
				</g>
				<g id="g498" transform="translate(114.249,243.0713)">
					<path id="path500" class="st9" d="M0,0c0-1.5-1.2-2.7-2.7-2.7S-5.3-1.5-5.3,0s1.2,2.7,2.7,2.7S0,1.5,0,0"/>
				</g>
				<g id="g502" transform="translate(69.6323,287.2241)">
					<path id="path504" class="st9" d="M0,0c0-1.5-1.2-2.7-2.7-2.7S-5.3-1.5-5.3,0s1.2,2.7,2.7,2.7S0,1.5,0,0"/>
				</g>
				<g id="g506" transform="translate(80.7866,287.2241)">
					<path id="path508" class="st9" d="M0,0c0-1.5-1.2-2.7-2.7-2.7S-5.3-1.5-5.3,0s1.2,2.7,2.7,2.7S0,1.5,0,0"/>
				</g>
				<g id="g510" transform="translate(91.9404,287.2241)">
					<path id="path512" class="st9" d="M0,0c0-1.5-1.2-2.7-2.7-2.7S-5.3-1.5-5.3,0s1.2,2.7,2.7,2.7S0,1.5,0,0"/>
				</g>
				<g id="g514" transform="translate(103.0947,287.2241)">
					<path id="path516" class="st9" d="M0,0c0-1.5-1.2-2.7-2.7-2.7S-5.3-1.5-5.3,0s1.2,2.7,2.7,2.7S0,1.5,0,0"/>
				</g>
				<g id="g518" transform="translate(114.249,287.2241)">
					<path id="path520" class="st9" d="M0,0c0-1.5-1.2-2.7-2.7-2.7S-5.3-1.5-5.3,0s1.2,2.7,2.7,2.7S0,1.5,0,0"/>
				</g>
				<g id="g522" transform="translate(69.6323,275.9072)">
					<path id="path524" class="st9" d="M0,0c0-1.5-1.2-2.7-2.7-2.7S-5.3-1.5-5.3,0s1.2,2.7,2.7,2.7S0,1.5,0,0"/>
				</g>
				<g id="g526" transform="translate(80.7866,275.9072)">
					<path id="path528" class="st9" d="M0,0c0-1.5-1.2-2.7-2.7-2.7S-5.3-1.5-5.3,0s1.2,2.7,2.7,2.7S0,1.5,0,0"/>
				</g>
				<g id="g530" transform="translate(91.9404,275.9072)">
					<path id="path532" class="st9" d="M0,0c0-1.5-1.2-2.7-2.7-2.7S-5.3-1.5-5.3,0s1.2,2.7,2.7,2.7S0,1.5,0,0"/>
				</g>
				<g id="g534" transform="translate(103.0947,275.9072)">
					<path id="path536" class="st9" d="M0,0c0-1.5-1.2-2.7-2.7-2.7S-5.3-1.5-5.3,0s1.2,2.7,2.7,2.7S0,1.5,0,0"/>
				</g>
				<g id="g538" transform="translate(114.249,275.9072)">
					<path id="path540" class="st9" d="M0,0c0-1.5-1.2-2.7-2.7-2.7S-5.3-1.5-5.3,0s1.2,2.7,2.7,2.7S0,1.5,0,0"/>
				</g>
				<g id="g542" transform="translate(69.6323,264.5903)">
					<path id="path544" class="st9" d="M0,0c0-1.5-1.2-2.7-2.7-2.7S-5.3-1.5-5.3,0c0,1.5,1.2,2.7,2.7,2.7S0,1.5,0,0"/>
				</g>
				<g id="g546" transform="translate(80.7866,264.5903)">
					<path id="path548" class="st9" d="M0,0c0-1.5-1.2-2.7-2.7-2.7S-5.3-1.5-5.3,0c0,1.5,1.2,2.7,2.7,2.7S0,1.5,0,0"/>
				</g>
				<g id="g550" transform="translate(91.9404,264.5903)">
					<path id="path552" class="st9" d="M0,0c0-1.5-1.2-2.7-2.7-2.7S-5.3-1.5-5.3,0c0,1.5,1.2,2.7,2.7,2.7S0,1.5,0,0"/>
				</g>
				<g id="g554" transform="translate(103.0947,264.5903)">
					<path id="path556" class="st9" d="M0,0c0-1.5-1.2-2.7-2.7-2.7S-5.3-1.5-5.3,0c0,1.5,1.2,2.7,2.7,2.7S0,1.5,0,0"/>
				</g>
				<g id="g558" transform="translate(114.249,264.5903)">
					<path id="path560" class="st9" d="M0,0c0-1.5-1.2-2.7-2.7-2.7S-5.3-1.5-5.3,0c0,1.5,1.2,2.7,2.7,2.7S0,1.5,0,0"/>
				</g>
				<g id="g562" transform="translate(346.3936,379.4258)">
					<path id="path564" class="st9" d="M0,0c0-1.5-1.2-2.7-2.7-2.7S-5.3-1.5-5.3,0s1.2,2.7,2.7,2.7S0,1.5,0,0"/>
				</g>
				<g id="g566" transform="translate(357.5469,379.4258)">
					<path id="path568" class="st9" d="M0,0c0-1.5-1.2-2.7-2.7-2.7S-5.3-1.5-5.3,0s1.2,2.7,2.7,2.7S0,1.5,0,0"/>
				</g>
				<g id="g570" transform="translate(368.7012,379.4258)">
					<path id="path572" class="st9" d="M0,0c0-1.5-1.2-2.7-2.7-2.7c-1.5,0-2.7,1.2-2.7,2.7s1.2,2.7,2.7,2.7C-1.2,2.7,0,1.5,0,0"/>
				</g>
				<g id="g574" transform="translate(379.8555,379.4258)">
					<path id="path576" class="st9" d="M0,0c0-1.5-1.2-2.7-2.7-2.7S-5.3-1.5-5.3,0s1.2,2.7,2.7,2.7S0,1.5,0,0"/>
				</g>
				<g id="g578" transform="translate(391.0098,379.4258)">
					<path id="path580" class="st9" d="M0,0c0-1.5-1.2-2.7-2.7-2.7S-5.3-1.5-5.3,0s1.2,2.7,2.7,2.7S0,1.5,0,0"/>
				</g>
				<g id="g582" transform="translate(346.3936,368.1089)">
					<path id="path584" class="st9" d="M0,0c0-1.5-1.2-2.7-2.7-2.7S-5.3-1.5-5.3,0c0,1.5,1.2,2.7,2.7,2.7S0,1.5,0,0"/>
				</g>
				<g id="g586" transform="translate(357.5469,368.1089)">
					<path id="path588" class="st9" d="M0,0c0-1.5-1.2-2.7-2.7-2.7S-5.3-1.5-5.3,0c0,1.5,1.2,2.7,2.7,2.7S0,1.5,0,0"/>
				</g>
				<g id="g590" transform="translate(368.7012,368.1089)">
					<path id="path592" class="st9" d="M0,0c0-1.5-1.2-2.7-2.7-2.7c-1.5,0-2.7,1.2-2.7,2.7c0,1.5,1.2,2.7,2.7,2.7
						C-1.2,2.7,0,1.5,0,0"/>
				</g>
				<g id="g594" transform="translate(379.8555,368.1089)">
					<path id="path596" class="st9" d="M0,0c0-1.5-1.2-2.7-2.7-2.7S-5.3-1.5-5.3,0c0,1.5,1.2,2.7,2.7,2.7S0,1.5,0,0"/>
				</g>
				<g id="g598" transform="translate(391.0098,368.1089)">
					<path id="path600" class="st9" d="M0,0c0-1.5-1.2-2.7-2.7-2.7S-5.3-1.5-5.3,0c0,1.5,1.2,2.7,2.7,2.7S0,1.5,0,0"/>
				</g>
				<g id="g602" transform="translate(346.3936,412.2617)">
					<path id="path604" class="st9" d="M0,0c0-1.5-1.2-2.7-2.7-2.7S-5.3-1.5-5.3,0s1.2,2.7,2.7,2.7S0,1.5,0,0"/>
				</g>
				<g id="g606" transform="translate(357.5469,412.2617)">
					<path id="path608" class="st9" d="M0,0c0-1.5-1.2-2.7-2.7-2.7S-5.3-1.5-5.3,0s1.2,2.7,2.7,2.7S0,1.5,0,0"/>
				</g>
				<g id="g610" transform="translate(368.7012,412.2617)">
					<path id="path612" class="st9" d="M0,0c0-1.5-1.2-2.7-2.7-2.7c-1.5,0-2.7,1.2-2.7,2.7s1.2,2.7,2.7,2.7C-1.2,2.7,0,1.5,0,0"/>
				</g>
				<g id="g614" transform="translate(379.8555,412.2617)">
					<path id="path616" class="st9" d="M0,0c0-1.5-1.2-2.7-2.7-2.7S-5.3-1.5-5.3,0s1.2,2.7,2.7,2.7S0,1.5,0,0"/>
				</g>
				<g id="g618" transform="translate(391.0098,412.2617)">
					<path id="path620" class="st9" d="M0,0c0-1.5-1.2-2.7-2.7-2.7S-5.3-1.5-5.3,0s1.2,2.7,2.7,2.7S0,1.5,0,0"/>
				</g>
				<g id="g622" transform="translate(346.3936,400.9448)">
					<path id="path624" class="st9" d="M0,0c0-1.5-1.2-2.7-2.7-2.7S-5.3-1.5-5.3,0s1.2,2.7,2.7,2.7S0,1.5,0,0"/>
				</g>
				<g id="g626" transform="translate(357.5469,400.9448)">
					<path id="path628" class="st9" d="M0,0c0-1.5-1.2-2.7-2.7-2.7S-5.3-1.5-5.3,0s1.2,2.7,2.7,2.7S0,1.5,0,0"/>
				</g>
				<g id="g630" transform="translate(368.7012,400.9448)">
					<path id="path632" class="st9" d="M0,0c0-1.5-1.2-2.7-2.7-2.7c-1.5,0-2.7,1.2-2.7,2.7s1.2,2.7,2.7,2.7C-1.2,2.7,0,1.5,0,0"/>
				</g>
				<g id="g634" transform="translate(379.8555,400.9448)">
					<path id="path636" class="st9" d="M0,0c0-1.5-1.2-2.7-2.7-2.7S-5.3-1.5-5.3,0s1.2,2.7,2.7,2.7S0,1.5,0,0"/>
				</g>
				<g id="g638" transform="translate(391.0098,400.9448)">
					<path id="path640" class="st9" d="M0,0c0-1.5-1.2-2.7-2.7-2.7S-5.3-1.5-5.3,0s1.2,2.7,2.7,2.7S0,1.5,0,0"/>
				</g>
				<g id="g642" transform="translate(346.3936,389.6279)">
					<path id="path644" class="st9" d="M0,0c0-1.5-1.2-2.7-2.7-2.7S-5.3-1.5-5.3,0s1.2,2.7,2.7,2.7S0,1.5,0,0"/>
				</g>
				<g id="g646" transform="translate(357.5469,389.6279)">
					<path id="path648" class="st9" d="M0,0c0-1.5-1.2-2.7-2.7-2.7S-5.3-1.5-5.3,0s1.2,2.7,2.7,2.7S0,1.5,0,0"/>
				</g>
				<g id="g650" transform="translate(368.7012,389.6279)">
					<path id="path652" class="st9" d="M0,0c0-1.5-1.2-2.7-2.7-2.7c-1.5,0-2.7,1.2-2.7,2.7s1.2,2.7,2.7,2.7C-1.2,2.7,0,1.5,0,0"/>
				</g>
				<g id="g654" transform="translate(379.8555,389.6279)">
					<path id="path656" class="st9" d="M0,0c0-1.5-1.2-2.7-2.7-2.7S-5.3-1.5-5.3,0s1.2,2.7,2.7,2.7S0,1.5,0,0"/>
				</g>
				<g id="g658" transform="translate(391.0098,389.6279)">
					<path id="path660" class="st9" d="M0,0c0-1.5-1.2-2.7-2.7-2.7S-5.3-1.5-5.3,0s1.2,2.7,2.7,2.7S0,1.5,0,0"/>
				</g>
				<g id="g662" transform="translate(169.188,427.3345)">
					<path id="path664" class="st10" d="M0,0c0-1.5-1.2-2.7-2.7-2.7S-5.3-1.5-5.3,0s1.2,2.7,2.7,2.7S0,1.5,0,0"/>
				</g>
				<g id="g666" transform="translate(180.3423,427.3345)">
					<path id="path668" class="st10" d="M0,0c0-1.5-1.2-2.7-2.7-2.7S-5.3-1.5-5.3,0s1.2,2.7,2.7,2.7S0,1.5,0,0"/>
				</g>
				<g id="g670" transform="translate(191.4966,427.3345)">
					<path id="path672" class="st10" d="M0,0c0-1.5-1.2-2.7-2.7-2.7S-5.3-1.5-5.3,0s1.2,2.7,2.7,2.7S0,1.5,0,0"/>
				</g>
				<g id="g674" transform="translate(202.6504,427.3345)">
					<path id="path676" class="st10" d="M0,0c0-1.5-1.2-2.7-2.7-2.7S-5.3-1.5-5.3,0s1.2,2.7,2.7,2.7S0,1.5,0,0"/>
				</g>
				<g id="g678" transform="translate(213.8047,427.3345)">
					<path id="path680" class="st10" d="M0,0c0-1.5-1.2-2.7-2.7-2.7S-5.3-1.5-5.3,0s1.2,2.7,2.7,2.7S0,1.5,0,0"/>
				</g>
				<g id="g682" transform="translate(169.188,416.0176)">
					<path id="path684" class="st10" d="M0,0c0-1.5-1.2-2.7-2.7-2.7S-5.3-1.5-5.3,0s1.2,2.7,2.7,2.7S0,1.5,0,0"/>
				</g>
				<g id="g686" transform="translate(180.3423,416.0176)">
					<path id="path688" class="st10" d="M0,0c0-1.5-1.2-2.7-2.7-2.7S-5.3-1.5-5.3,0s1.2,2.7,2.7,2.7S0,1.5,0,0"/>
				</g>
				<g id="g690" transform="translate(191.4966,416.0176)">
					<path id="path692" class="st10" d="M0,0c0-1.5-1.2-2.7-2.7-2.7S-5.3-1.5-5.3,0s1.2,2.7,2.7,2.7S0,1.5,0,0"/>
				</g>
				<g id="g694" transform="translate(202.6504,416.0176)">
					<path id="path696" class="st10" d="M0,0c0-1.5-1.2-2.7-2.7-2.7S-5.3-1.5-5.3,0s1.2,2.7,2.7,2.7S0,1.5,0,0"/>
				</g>
				<g id="g698" transform="translate(213.8047,416.0176)">
					<path id="path700" class="st10" d="M0,0c0-1.5-1.2-2.7-2.7-2.7S-5.3-1.5-5.3,0s1.2,2.7,2.7,2.7S0,1.5,0,0"/>
				</g>
				<g id="g702" transform="translate(169.188,460.1709)">
					<path id="path704" class="st10" d="M0,0c0-1.5-1.2-2.7-2.7-2.7S-5.3-1.5-5.3,0s1.2,2.7,2.7,2.7S0,1.5,0,0"/>
				</g>
				<g id="g706" transform="translate(180.3423,460.1709)">
					<path id="path708" class="st10" d="M0,0c0-1.5-1.2-2.7-2.7-2.7S-5.3-1.5-5.3,0s1.2,2.7,2.7,2.7S0,1.5,0,0"/>
				</g>
				<g id="g710" transform="translate(191.4966,460.1709)">
					<path id="path712" class="st10" d="M0,0c0-1.5-1.2-2.7-2.7-2.7S-5.3-1.5-5.3,0s1.2,2.7,2.7,2.7S0,1.5,0,0"/>
				</g>
				<g id="g714" transform="translate(202.6504,460.1709)">
					<path id="path716" class="st10" d="M0,0c0-1.5-1.2-2.7-2.7-2.7S-5.3-1.5-5.3,0s1.2,2.7,2.7,2.7S0,1.5,0,0"/>
				</g>
				<g id="g718" transform="translate(213.8047,460.1709)">
					<path id="path720" class="st10" d="M0,0c0-1.5-1.2-2.7-2.7-2.7S-5.3-1.5-5.3,0s1.2,2.7,2.7,2.7S0,1.5,0,0"/>
				</g>
				<g id="g722" transform="translate(169.188,448.854)">
					<path id="path724" class="st10" d="M0,0c0-1.5-1.2-2.7-2.7-2.7S-5.3-1.5-5.3,0s1.2,2.7,2.7,2.7S0,1.5,0,0"/>
				</g>
				<g id="g726" transform="translate(180.3423,448.854)">
					<path id="path728" class="st10" d="M0,0c0-1.5-1.2-2.7-2.7-2.7S-5.3-1.5-5.3,0s1.2,2.7,2.7,2.7S0,1.5,0,0"/>
				</g>
				<g id="g730" transform="translate(191.4966,448.854)">
					<path id="path732" class="st10" d="M0,0c0-1.5-1.2-2.7-2.7-2.7S-5.3-1.5-5.3,0s1.2,2.7,2.7,2.7S0,1.5,0,0"/>
				</g>
				<g id="g734" transform="translate(202.6504,448.854)">
					<path id="path736" class="st10" d="M0,0c0-1.5-1.2-2.7-2.7-2.7S-5.3-1.5-5.3,0s1.2,2.7,2.7,2.7S0,1.5,0,0"/>
				</g>
				<g id="g738" transform="translate(213.8047,448.854)">
					<path id="path740" class="st10" d="M0,0c0-1.5-1.2-2.7-2.7-2.7S-5.3-1.5-5.3,0s1.2,2.7,2.7,2.7S0,1.5,0,0"/>
				</g>
				<g id="g742" transform="translate(169.188,437.5371)">
					<path id="path744" class="st10" d="M0,0c0-1.5-1.2-2.7-2.7-2.7S-5.3-1.5-5.3,0s1.2,2.7,2.7,2.7S0,1.5,0,0"/>
				</g>
				<g id="g746" transform="translate(180.3423,437.5371)">
					<path id="path748" class="st10" d="M0,0c0-1.5-1.2-2.7-2.7-2.7S-5.3-1.5-5.3,0s1.2,2.7,2.7,2.7S0,1.5,0,0"/>
				</g>
				<g id="g750" transform="translate(191.4966,437.5371)">
					<path id="path752" class="st10" d="M0,0c0-1.5-1.2-2.7-2.7-2.7S-5.3-1.5-5.3,0s1.2,2.7,2.7,2.7S0,1.5,0,0"/>
				</g>
				<g id="g754" transform="translate(202.6504,437.5371)">
					<path id="path756" class="st10" d="M0,0c0-1.5-1.2-2.7-2.7-2.7S-5.3-1.5-5.3,0s1.2,2.7,2.7,2.7S0,1.5,0,0"/>
				</g>
				<g id="g758" transform="translate(213.8047,437.5371)">
					<path id="path760" class="st10" d="M0,0c0-1.5-1.2-2.7-2.7-2.7S-5.3-1.5-5.3,0s1.2,2.7,2.7,2.7S0,1.5,0,0"/>
				</g>
			</g>
		</g>
	</g>
</g>
</svg>
